<svg xmlns="http://www.w3.org/2000/svg" viewBox="0 0 86.12 86.12"><defs><style>.cls-1{fill:#5db6ce;}</style></defs><g id="Layer_2" data-name="Layer 2"><g id="Layer_1-2" data-name="Layer 1"><polygon class="cls-1" points="79.5 79.5 79.5 72.87 79.5 66.25 72.87 66.25 72.87 59.62 72.87 53 66.25 53 66.25 46.37 66.25 39.75 59.62 39.75 59.62 33.12 59.62 26.5 53 26.5 53 19.88 53 13.25 46.37 13.25 46.37 6.62 46.37 0 39.75 0 39.75 6.62 39.75 13.25 33.12 13.25 33.12 19.88 33.12 26.5 26.5 26.5 26.5 33.12 26.5 39.75 19.88 39.75 19.88 46.37 19.88 53 13.25 53 13.25 59.62 13.25 66.25 6.63 66.25 6.63 72.87 6.63 79.5 0 79.5 0 86.12 6.63 86.12 13.25 86.12 19.88 86.12 26.5 86.12 33.12 86.12 39.75 86.12 46.37 86.12 53 86.12 59.62 86.12 66.25 86.12 72.87 86.12 79.5 86.12 86.12 86.12 86.12 79.5 79.5 79.5"/><rect class="cls-1" x="79.5" y="79.5" width="6.62" height="6.62"/><rect class="cls-1" x="72.87" y="79.5" width="6.63" height="6.62"/><rect class="cls-1" x="72.87" y="72.87" width="6.63" height="6.62"/><rect class="cls-1" x="72.87" y="66.25" width="6.63" height="6.63"/><rect class="cls-1" x="66.25" y="79.5" width="6.62" height="6.62"/><rect class="cls-1" x="66.25" y="72.87" width="6.62" height="6.62"/><rect class="cls-1" x="66.25" y="66.25" width="6.62" height="6.63"/><rect class="cls-1" x="66.25" y="59.62" width="6.62" height="6.62"/><rect class="cls-1" x="66.25" y="53" width="6.62" height="6.62"/><rect class="cls-1" x="59.62" y="79.5" width="6.62" height="6.62"/><rect class="cls-1" x="59.62" y="72.87" width="6.62" height="6.62"/><rect class="cls-1" x="59.62" y="66.25" width="6.62" height="6.63"/><rect class="cls-1" x="59.62" y="59.62" width="6.62" height="6.62"/><rect class="cls-1" x="59.62" y="53" width="6.62" height="6.62"/><rect class="cls-1" x="59.62" y="46.37" width="6.62" height="6.62"/><rect class="cls-1" x="59.62" y="39.75" width="6.62" height="6.63"/><rect class="cls-1" x="53" y="79.5" width="6.62" height="6.62"/><rect class="cls-1" x="53" y="72.87" width="6.62" height="6.62"/><rect class="cls-1" x="53" y="66.25" width="6.62" height="6.63"/><rect class="cls-1" x="53" y="59.62" width="6.62" height="6.62"/><rect class="cls-1" x="53" y="53" width="6.62" height="6.62"/><rect class="cls-1" x="53" y="46.37" width="6.62" height="6.62"/><rect class="cls-1" x="53" y="39.75" width="6.62" height="6.63"/><rect class="cls-1" x="53" y="33.12" width="6.62" height="6.63"/><rect class="cls-1" x="53" y="26.5" width="6.62" height="6.62"/><rect class="cls-1" x="46.37" y="79.5" width="6.63" height="6.62"/><rect class="cls-1" x="46.37" y="72.87" width="6.63" height="6.62"/><rect class="cls-1" x="46.37" y="66.25" width="6.63" height="6.63"/><rect class="cls-1" x="46.37" y="59.62" width="6.63" height="6.62"/><rect class="cls-1" x="46.37" y="53" width="6.63" height="6.62"/><rect class="cls-1" x="46.37" y="46.37" width="6.63" height="6.62"/><rect class="cls-1" x="46.37" y="39.75" width="6.63" height="6.63"/><rect class="cls-1" x="46.37" y="33.12" width="6.63" height="6.63"/><rect class="cls-1" x="46.37" y="26.5" width="6.63" height="6.62"/><rect class="cls-1" x="46.37" y="19.88" width="6.63" height="6.62"/><rect class="cls-1" x="46.37" y="13.25" width="6.63" height="6.63"/><rect class="cls-1" x="39.75" y="79.5" width="6.62" height="6.62"/><rect class="cls-1" x="39.75" y="72.87" width="6.62" height="6.62"/><rect class="cls-1" x="39.75" y="66.25" width="6.62" height="6.63"/><rect class="cls-1" x="39.75" y="59.62" width="6.62" height="6.62"/><rect class="cls-1" x="39.75" y="53" width="6.62" height="6.62"/><rect class="cls-1" x="39.75" y="46.37" width="6.62" height="6.62"/><rect class="cls-1" x="39.75" y="39.75" width="6.62" height="6.63"/><rect class="cls-1" x="39.75" y="33.12" width="6.62" height="6.63"/><rect class="cls-1" x="39.75" y="26.5" width="6.62" height="6.62"/><rect class="cls-1" x="39.75" y="19.88" width="6.62" height="6.62"/><rect class="cls-1" x="39.75" y="13.25" width="6.62" height="6.63"/><rect class="cls-1" x="39.75" y="6.62" width="6.62" height="6.62"/><rect class="cls-1" x="39.75" width="6.62" height="6.62"/><rect class="cls-1" x="33.12" y="13.25" width="6.63" height="6.63"/><rect class="cls-1" x="33.12" y="19.88" width="6.63" height="6.62"/><rect class="cls-1" x="33.12" y="26.5" width="6.63" height="6.62"/><rect class="cls-1" x="33.12" y="33.12" width="6.63" height="6.63"/><rect class="cls-1" x="33.12" y="39.75" width="6.63" height="6.63"/><rect class="cls-1" x="33.12" y="46.37" width="6.63" height="6.62"/><rect class="cls-1" x="33.12" y="53" width="6.63" height="6.62"/><rect class="cls-1" x="33.12" y="59.62" width="6.63" height="6.62"/><rect class="cls-1" x="33.12" y="66.25" width="6.63" height="6.63"/><rect class="cls-1" x="33.12" y="72.87" width="6.63" height="6.62"/><rect class="cls-1" x="33.12" y="79.5" width="6.63" height="6.62"/><rect class="cls-1" x="26.5" y="26.5" width="6.62" height="6.62"/><rect class="cls-1" x="26.5" y="33.12" width="6.62" height="6.63"/><rect class="cls-1" x="26.5" y="39.75" width="6.62" height="6.63"/><rect class="cls-1" x="26.5" y="46.37" width="6.62" height="6.62"/><rect class="cls-1" x="26.5" y="53" width="6.62" height="6.62"/><rect class="cls-1" x="26.5" y="59.62" width="6.62" height="6.62"/><rect class="cls-1" x="26.5" y="66.25" width="6.62" height="6.63"/><rect class="cls-1" x="26.5" y="72.87" width="6.62" height="6.62"/><rect class="cls-1" x="26.5" y="79.5" width="6.62" height="6.62"/><rect class="cls-1" x="19.87" y="79.5" width="6.63" height="6.62"/><rect class="cls-1" x="19.87" y="72.87" width="6.63" height="6.62"/><rect class="cls-1" x="19.87" y="66.25" width="6.63" height="6.63"/><rect class="cls-1" x="19.87" y="59.62" width="6.63" height="6.62"/><rect class="cls-1" x="19.87" y="53" width="6.63" height="6.62"/><rect class="cls-1" x="19.87" y="46.37" width="6.63" height="6.62"/><rect class="cls-1" x="19.87" y="39.75" width="6.63" height="6.63"/><rect class="cls-1" x="13.25" y="79.5" width="6.62" height="6.62"/><rect class="cls-1" x="13.25" y="72.87" width="6.62" height="6.62"/><rect class="cls-1" x="13.25" y="66.25" width="6.62" height="6.63"/><rect class="cls-1" x="13.25" y="59.62" width="6.62" height="6.62"/><rect class="cls-1" x="13.25" y="53" width="6.62" height="6.62"/><rect class="cls-1" x="6.63" y="79.5" width="6.62" height="6.62"/><rect class="cls-1" x="6.63" y="72.87" width="6.62" height="6.62"/><rect class="cls-1" x="6.63" y="66.25" width="6.62" height="6.63"/><rect class="cls-1" y="79.5" width="6.63" height="6.62"/></g></g></svg>