<svg xmlns="http://www.w3.org/2000/svg" viewBox="0 0 86.12 86.12"><defs><style>.cls-1{fill:#d9cf3f;}.cls-2{fill:#ffde30;}</style></defs><g id="Layer_2" data-name="Layer 2"><g id="Layer_1-2" data-name="Layer 1"><rect class="cls-1" x="79.5" width="6.62" height="6.62"/><rect class="cls-1" x="72.87" y="13.25" width="6.62" height="6.63"/><rect class="cls-1" x="72.87" y="6.62" width="6.62" height="6.62"/><rect class="cls-1" x="72.87" width="6.62" height="6.62"/><rect class="cls-1" x="66.25" y="26.5" width="6.63" height="6.62"/><rect class="cls-1" x="66.25" y="19.88" width="6.63" height="6.62"/><rect class="cls-1" x="66.25" y="13.25" width="6.63" height="6.63"/><rect class="cls-1" x="66.25" y="6.62" width="6.63" height="6.62"/><rect class="cls-1" x="66.25" width="6.63" height="6.62"/><rect class="cls-1" x="59.62" y="39.75" width="6.62" height="6.63"/><rect class="cls-1" x="59.62" y="33.12" width="6.62" height="6.63"/><rect class="cls-1" x="59.62" y="26.5" width="6.62" height="6.62"/><rect class="cls-1" x="59.62" y="19.88" width="6.62" height="6.62"/><rect class="cls-1" x="59.62" y="13.25" width="6.62" height="6.63"/><rect class="cls-1" x="59.62" y="6.62" width="6.62" height="6.62"/><rect class="cls-2" x="59.62" width="6.62" height="6.62"/><rect class="cls-1" x="53" y="53" width="6.62" height="6.62"/><rect class="cls-1" x="53" y="46.37" width="6.62" height="6.62"/><rect class="cls-1" x="53" y="39.75" width="6.62" height="6.63"/><rect class="cls-1" x="53" y="33.12" width="6.62" height="6.63"/><rect class="cls-1" x="53" y="26.5" width="6.62" height="6.62"/><rect class="cls-1" x="53" y="19.88" width="6.62" height="6.62"/><rect class="cls-2" x="53" y="13.25" width="6.62" height="6.63"/><rect class="cls-2" x="53" y="6.62" width="6.62" height="6.62"/><rect class="cls-2" x="53" width="6.62" height="6.62"/><rect class="cls-2" x="46.37" width="6.63" height="6.62"/><rect class="cls-2" x="46.37" y="6.62" width="6.63" height="6.62"/><rect class="cls-2" x="46.37" y="13.25" width="6.63" height="6.63"/><rect class="cls-2" x="46.37" y="19.88" width="6.63" height="6.62"/><rect class="cls-2" x="46.37" y="26.5" width="6.63" height="6.62"/><rect class="cls-1" x="46.37" y="33.12" width="6.63" height="6.63"/><rect class="cls-1" x="46.37" y="39.75" width="6.63" height="6.63"/><rect class="cls-1" x="46.37" y="46.37" width="6.63" height="6.62"/><rect class="cls-1" x="46.37" y="53" width="6.63" height="6.62"/><rect class="cls-1" x="46.37" y="59.62" width="6.63" height="6.62"/><rect class="cls-1" x="46.37" y="66.25" width="6.63" height="6.63"/><rect class="cls-2" x="39.74" width="6.63" height="6.62"/><rect class="cls-2" x="39.74" y="6.62" width="6.63" height="6.62"/><rect class="cls-2" x="39.74" y="13.25" width="6.63" height="6.63"/><rect class="cls-2" x="39.74" y="19.88" width="6.63" height="6.62"/><rect class="cls-2" x="39.74" y="26.5" width="6.63" height="6.62"/><rect class="cls-2" x="39.74" y="33.12" width="6.63" height="6.63"/><rect class="cls-2" x="39.74" y="39.75" width="6.63" height="6.63"/><rect class="cls-1" x="39.74" y="46.37" width="6.63" height="6.62"/><rect class="cls-1" x="39.74" y="53" width="6.63" height="6.62"/><rect class="cls-1" x="39.74" y="59.62" width="6.63" height="6.62"/><rect class="cls-1" x="39.74" y="66.25" width="6.63" height="6.63"/><rect class="cls-1" x="39.74" y="72.87" width="6.63" height="6.62"/><rect class="cls-1" x="39.74" y="79.5" width="6.63" height="6.62"/><rect class="cls-2" x="33.12" width="6.62" height="6.62"/><rect class="cls-2" x="33.12" y="6.62" width="6.62" height="6.62"/><rect class="cls-2" x="33.12" y="13.25" width="6.62" height="6.63"/><rect class="cls-2" x="33.12" y="19.88" width="6.62" height="6.62"/><rect class="cls-2" x="33.12" y="26.5" width="6.62" height="6.62"/><rect class="cls-1" x="33.12" y="33.12" width="6.62" height="6.63"/><rect class="cls-1" x="33.12" y="39.75" width="6.62" height="6.63"/><rect class="cls-1" x="33.12" y="46.37" width="6.62" height="6.62"/><rect class="cls-1" x="33.12" y="53" width="6.62" height="6.62"/><rect class="cls-1" x="33.12" y="59.62" width="6.62" height="6.62"/><rect class="cls-1" x="33.12" y="66.25" width="6.62" height="6.63"/><rect class="cls-1" x="26.5" y="53" width="6.62" height="6.62"/><rect class="cls-1" x="26.5" y="46.37" width="6.62" height="6.62"/><rect class="cls-1" x="26.5" y="39.75" width="6.62" height="6.63"/><rect class="cls-1" x="26.5" y="33.12" width="6.62" height="6.63"/><rect class="cls-1" x="26.5" y="26.5" width="6.62" height="6.62"/><rect class="cls-1" x="26.5" y="19.88" width="6.62" height="6.62"/><rect class="cls-2" x="26.5" y="13.25" width="6.62" height="6.63"/><rect class="cls-2" x="26.5" y="6.62" width="6.62" height="6.62"/><rect class="cls-2" x="26.5" width="6.62" height="6.62"/><rect class="cls-1" x="19.87" y="39.75" width="6.62" height="6.63"/><rect class="cls-1" x="19.87" y="33.12" width="6.62" height="6.63"/><rect class="cls-1" x="19.87" y="26.5" width="6.62" height="6.62"/><rect class="cls-1" x="19.87" y="19.88" width="6.62" height="6.62"/><rect class="cls-1" x="19.87" y="13.25" width="6.62" height="6.63"/><rect class="cls-1" x="19.87" y="6.62" width="6.62" height="6.62"/><rect class="cls-2" x="19.87" width="6.62" height="6.62"/><rect class="cls-1" x="13.25" y="26.5" width="6.63" height="6.62"/><rect class="cls-1" x="13.25" y="19.88" width="6.63" height="6.62"/><rect class="cls-1" x="13.25" y="13.25" width="6.63" height="6.63"/><rect class="cls-1" x="13.25" y="6.62" width="6.63" height="6.62"/><rect class="cls-1" x="13.25" width="6.63" height="6.62"/><rect class="cls-1" x="6.62" y="13.25" width="6.62" height="6.63"/><rect class="cls-1" x="6.62" y="6.62" width="6.62" height="6.62"/><rect class="cls-1" x="6.62" width="6.62" height="6.62"/><rect class="cls-1" width="6.62" height="6.62"/></g></g></svg>