<svg xmlns="http://www.w3.org/2000/svg" viewBox="0 0 125.87 79.5"><defs><style>.cls-1{fill:#89c540;}</style></defs><g id="Layer_2" data-name="Layer 2"><g id="Layer_1-2" data-name="Layer 1"><polygon class="cls-1" points="119.24 33.13 119.24 26.5 112.62 26.5 105.99 26.5 99.37 26.5 92.75 26.5 86.12 26.5 79.49 26.5 72.87 26.5 66.25 26.5 59.62 26.5 52.99 26.5 46.37 26.5 39.75 26.5 33.12 26.5 26.5 26.5 19.88 26.5 19.88 19.88 13.25 19.88 13.25 13.25 6.62 13.25 6.62 6.63 6.62 0 0 0 0 6.63 0 13.25 0 19.88 0 26.5 0 33.13 0 39.75 0 46.37 0 53 0 59.62 0 66.25 0 72.87 6.62 72.87 6.62 79.5 13.25 79.5 19.88 79.5 26.5 79.5 33.12 79.5 39.75 79.5 46.37 79.5 52.99 79.5 59.62 79.5 66.25 79.5 72.87 79.5 79.49 79.5 86.12 79.5 92.75 79.5 99.37 79.5 105.99 79.5 112.62 79.5 119.24 79.5 119.24 72.87 125.87 72.87 125.87 66.25 125.87 59.62 125.87 53 125.87 46.37 125.87 39.75 125.87 33.13 119.24 33.13"/><rect class="cls-1" x="119.24" y="33.13" width="6.63" height="6.63"/><rect class="cls-1" x="119.24" y="39.75" width="6.63" height="6.62"/><rect class="cls-1" x="119.24" y="46.37" width="6.63" height="6.63"/><rect class="cls-1" x="119.24" y="53" width="6.63" height="6.62"/><rect class="cls-1" x="119.24" y="59.62" width="6.63" height="6.62"/><rect class="cls-1" x="119.24" y="66.25" width="6.63" height="6.63"/><rect class="cls-1" x="112.62" y="26.5" width="6.63" height="6.63"/><rect class="cls-1" x="112.62" y="33.13" width="6.63" height="6.63"/><rect class="cls-1" x="112.62" y="39.75" width="6.63" height="6.62"/><rect class="cls-1" x="112.62" y="46.37" width="6.63" height="6.63"/><rect class="cls-1" x="112.62" y="53" width="6.63" height="6.62"/><rect class="cls-1" x="112.62" y="59.62" width="6.63" height="6.62"/><rect class="cls-1" x="112.62" y="66.25" width="6.63" height="6.63"/><rect class="cls-1" x="112.62" y="72.87" width="6.63" height="6.62"/><rect class="cls-1" x="105.99" y="26.5" width="6.62" height="6.63"/><rect class="cls-1" x="105.99" y="33.13" width="6.62" height="6.63"/><rect class="cls-1" x="105.99" y="39.75" width="6.62" height="6.62"/><rect class="cls-1" x="105.99" y="46.37" width="6.62" height="6.63"/><rect class="cls-1" x="105.99" y="53" width="6.62" height="6.62"/><rect class="cls-1" x="105.99" y="59.62" width="6.62" height="6.62"/><rect class="cls-1" x="105.99" y="66.25" width="6.62" height="6.63"/><rect class="cls-1" x="105.99" y="72.87" width="6.62" height="6.62"/><rect class="cls-1" x="99.37" y="72.87" width="6.62" height="6.62"/><rect class="cls-1" x="99.37" y="66.25" width="6.62" height="6.63"/><rect class="cls-1" x="99.37" y="59.62" width="6.62" height="6.62"/><rect class="cls-1" x="99.37" y="53" width="6.62" height="6.62"/><rect class="cls-1" x="99.37" y="46.37" width="6.62" height="6.63"/><rect class="cls-1" x="99.37" y="39.75" width="6.62" height="6.62"/><rect class="cls-1" x="99.37" y="33.13" width="6.62" height="6.63"/><rect class="cls-1" x="99.37" y="26.5" width="6.62" height="6.63"/><rect class="cls-1" x="92.75" y="72.87" width="6.62" height="6.62"/><rect class="cls-1" x="92.75" y="66.25" width="6.62" height="6.63"/><rect class="cls-1" x="92.75" y="59.62" width="6.62" height="6.62"/><rect class="cls-1" x="92.75" y="53" width="6.62" height="6.62"/><rect class="cls-1" x="92.75" y="46.37" width="6.62" height="6.63"/><rect class="cls-1" x="92.75" y="39.75" width="6.62" height="6.62"/><rect class="cls-1" x="92.75" y="33.13" width="6.62" height="6.63"/><rect class="cls-1" x="92.75" y="26.5" width="6.62" height="6.63"/><rect class="cls-1" x="86.12" y="72.87" width="6.63" height="6.62"/><rect class="cls-1" x="86.12" y="66.25" width="6.63" height="6.63"/><rect class="cls-1" x="86.12" y="59.62" width="6.63" height="6.62"/><rect class="cls-1" x="86.12" y="53" width="6.63" height="6.62"/><rect class="cls-1" x="86.12" y="46.37" width="6.63" height="6.63"/><rect class="cls-1" x="86.12" y="39.75" width="6.63" height="6.62"/><rect class="cls-1" x="86.12" y="33.13" width="6.63" height="6.63"/><rect class="cls-1" x="86.12" y="26.5" width="6.63" height="6.63"/><rect class="cls-1" x="79.49" y="26.5" width="6.63" height="6.63"/><rect class="cls-1" x="79.49" y="33.13" width="6.63" height="6.63"/><rect class="cls-1" x="79.49" y="39.75" width="6.63" height="6.62"/><rect class="cls-1" x="79.49" y="46.37" width="6.63" height="6.63"/><rect class="cls-1" x="79.49" y="53" width="6.63" height="6.62"/><rect class="cls-1" x="79.49" y="59.62" width="6.63" height="6.62"/><rect class="cls-1" x="79.49" y="66.25" width="6.63" height="6.63"/><rect class="cls-1" x="79.49" y="72.87" width="6.63" height="6.62"/><rect class="cls-1" x="72.87" y="26.5" width="6.62" height="6.63"/><rect class="cls-1" x="72.87" y="33.13" width="6.62" height="6.63"/><rect class="cls-1" x="72.87" y="39.75" width="6.62" height="6.62"/><rect class="cls-1" x="72.87" y="46.37" width="6.62" height="6.63"/><rect class="cls-1" x="72.87" y="53" width="6.62" height="6.62"/><rect class="cls-1" x="72.87" y="59.62" width="6.62" height="6.62"/><rect class="cls-1" x="72.87" y="66.25" width="6.62" height="6.63"/><rect class="cls-1" x="72.87" y="72.87" width="6.62" height="6.62"/><rect class="cls-1" x="66.25" y="72.87" width="6.62" height="6.62"/><rect class="cls-1" x="66.25" y="66.25" width="6.62" height="6.63"/><rect class="cls-1" x="66.25" y="59.62" width="6.62" height="6.62"/><rect class="cls-1" x="66.25" y="53" width="6.62" height="6.62"/><rect class="cls-1" x="66.25" y="46.37" width="6.62" height="6.63"/><rect class="cls-1" x="66.25" y="39.75" width="6.62" height="6.62"/><rect class="cls-1" x="66.25" y="33.13" width="6.62" height="6.63"/><rect class="cls-1" x="66.25" y="26.5" width="6.62" height="6.63"/><rect class="cls-1" x="59.62" y="72.87" width="6.63" height="6.62"/><rect class="cls-1" x="59.62" y="66.25" width="6.63" height="6.63"/><rect class="cls-1" x="59.62" y="59.62" width="6.63" height="6.62"/><rect class="cls-1" x="59.62" y="53" width="6.63" height="6.62"/><rect class="cls-1" x="59.62" y="46.37" width="6.63" height="6.63"/><rect class="cls-1" x="59.62" y="39.75" width="6.63" height="6.62"/><rect class="cls-1" x="59.62" y="33.13" width="6.63" height="6.63"/><rect class="cls-1" x="59.62" y="26.5" width="6.63" height="6.63"/><rect class="cls-1" x="52.99" y="26.5" width="6.63" height="6.63"/><rect class="cls-1" x="52.99" y="33.13" width="6.63" height="6.63"/><rect class="cls-1" x="52.99" y="39.75" width="6.63" height="6.62"/><rect class="cls-1" x="52.99" y="46.37" width="6.63" height="6.63"/><rect class="cls-1" x="52.99" y="53" width="6.63" height="6.62"/><rect class="cls-1" x="52.99" y="59.62" width="6.63" height="6.62"/><rect class="cls-1" x="52.99" y="66.25" width="6.63" height="6.63"/><rect class="cls-1" x="52.99" y="72.87" width="6.63" height="6.62"/><rect class="cls-1" x="46.37" y="26.5" width="6.62" height="6.63"/><rect class="cls-1" x="46.37" y="33.13" width="6.62" height="6.63"/><rect class="cls-1" x="46.37" y="39.75" width="6.62" height="6.62"/><rect class="cls-1" x="46.37" y="46.37" width="6.62" height="6.63"/><rect class="cls-1" x="46.37" y="53" width="6.62" height="6.62"/><rect class="cls-1" x="46.37" y="59.62" width="6.62" height="6.62"/><rect class="cls-1" x="46.37" y="66.25" width="6.62" height="6.63"/><rect class="cls-1" x="46.37" y="72.87" width="6.62" height="6.62"/><rect class="cls-1" x="39.75" y="26.5" width="6.62" height="6.63"/><rect class="cls-1" x="39.75" y="33.13" width="6.62" height="6.63"/><rect class="cls-1" x="39.75" y="39.75" width="6.62" height="6.62"/><rect class="cls-1" x="39.75" y="46.37" width="6.62" height="6.63"/><rect class="cls-1" x="39.75" y="53" width="6.62" height="6.62"/><rect class="cls-1" x="39.75" y="59.62" width="6.62" height="6.62"/><rect class="cls-1" x="39.75" y="66.25" width="6.62" height="6.63"/><rect class="cls-1" x="39.75" y="72.87" width="6.62" height="6.62"/><rect class="cls-1" x="33.12" y="26.5" width="6.62" height="6.63"/><rect class="cls-1" x="33.12" y="33.13" width="6.62" height="6.63"/><rect class="cls-1" x="33.12" y="39.75" width="6.62" height="6.62"/><rect class="cls-1" x="33.12" y="46.37" width="6.62" height="6.63"/><rect class="cls-1" x="33.12" y="53" width="6.62" height="6.62"/><rect class="cls-1" x="33.12" y="59.62" width="6.62" height="6.62"/><rect class="cls-1" x="33.12" y="66.25" width="6.62" height="6.63"/><rect class="cls-1" x="33.12" y="72.87" width="6.62" height="6.62"/><rect class="cls-1" x="26.5" y="72.87" width="6.62" height="6.62"/><rect class="cls-1" x="26.5" y="66.25" width="6.62" height="6.63"/><rect class="cls-1" x="26.5" y="59.62" width="6.62" height="6.62"/><rect class="cls-1" x="26.5" y="53" width="6.62" height="6.62"/><rect class="cls-1" x="26.5" y="46.37" width="6.62" height="6.63"/><rect class="cls-1" x="26.5" y="39.75" width="6.62" height="6.62"/><rect class="cls-1" x="26.5" y="33.13" width="6.62" height="6.63"/><rect class="cls-1" x="26.5" y="26.5" width="6.62" height="6.63"/><rect class="cls-1" x="19.87" y="72.87" width="6.62" height="6.62"/><rect class="cls-1" x="19.87" y="66.25" width="6.62" height="6.63"/><rect class="cls-1" x="19.87" y="59.62" width="6.62" height="6.62"/><rect class="cls-1" x="19.87" y="53" width="6.62" height="6.62"/><rect class="cls-1" x="19.87" y="46.37" width="6.62" height="6.63"/><rect class="cls-1" x="19.87" y="39.75" width="6.62" height="6.62"/><rect class="cls-1" x="19.87" y="33.13" width="6.62" height="6.63"/><rect class="cls-1" x="19.87" y="26.5" width="6.62" height="6.63"/><rect class="cls-1" x="13.25" y="19.88" width="6.63" height="6.62"/><rect class="cls-1" x="13.25" y="26.5" width="6.63" height="6.63"/><rect class="cls-1" x="13.25" y="33.13" width="6.63" height="6.63"/><rect class="cls-1" x="13.25" y="39.75" width="6.63" height="6.62"/><rect class="cls-1" x="13.25" y="46.37" width="6.63" height="6.63"/><rect class="cls-1" x="13.25" y="53" width="6.63" height="6.62"/><rect class="cls-1" x="13.25" y="59.62" width="6.63" height="6.62"/><rect class="cls-1" x="13.25" y="66.25" width="6.63" height="6.63"/><rect class="cls-1" x="13.25" y="72.87" width="6.63" height="6.62"/><rect class="cls-1" x="6.62" y="13.25" width="6.62" height="6.63"/><rect class="cls-1" x="6.62" y="19.88" width="6.62" height="6.62"/><rect class="cls-1" x="6.62" y="26.5" width="6.62" height="6.63"/><rect class="cls-1" x="6.62" y="33.13" width="6.62" height="6.63"/><rect class="cls-1" x="6.62" y="39.75" width="6.62" height="6.62"/><rect class="cls-1" x="6.62" y="46.37" width="6.62" height="6.63"/><rect class="cls-1" x="6.62" y="53" width="6.62" height="6.62"/><rect class="cls-1" x="6.62" y="59.62" width="6.62" height="6.62"/><rect class="cls-1" x="6.62" y="66.25" width="6.62" height="6.63"/><rect class="cls-1" x="6.62" y="72.87" width="6.62" height="6.62"/><rect class="cls-1" y="66.25" width="6.62" height="6.63"/><rect class="cls-1" y="59.62" width="6.62" height="6.62"/><rect class="cls-1" y="53" width="6.62" height="6.62"/><rect class="cls-1" y="46.37" width="6.62" height="6.63"/><rect class="cls-1" y="39.75" width="6.62" height="6.62"/><rect class="cls-1" y="33.13" width="6.62" height="6.63"/><rect class="cls-1" y="26.5" width="6.62" height="6.63"/><rect class="cls-1" y="19.88" width="6.62" height="6.62"/><rect class="cls-1" y="13.25" width="6.62" height="6.63"/><rect class="cls-1" y="6.63" width="6.62" height="6.62"/><rect class="cls-1" width="6.62" height="6.63"/></g></g></svg>