<svg xmlns="http://www.w3.org/2000/svg" viewBox="0 0 86.12 59.62"><defs><style>.cls-1{fill:#ffde30;}</style></defs><g id="Layer_2" data-name="Layer 2"><g id="Layer_1-2" data-name="Layer 1"><polygon class="cls-1" points="79.5 13.25 79.5 6.62 72.87 6.62 72.87 0 66.25 0 59.62 0 53 0 46.37 0 39.75 0 39.75 6.62 33.12 6.62 33.12 13.25 26.5 13.25 26.5 19.87 26.5 26.5 26.5 33.12 26.5 39.75 19.88 39.75 19.88 46.37 13.25 46.37 13.25 53 6.62 53 0 53 0 59.62 6.62 59.62 13.25 59.62 19.88 59.62 26.5 59.62 33.12 59.62 39.75 59.62 46.37 59.62 53 59.62 59.62 59.62 66.25 59.62 72.87 59.62 72.87 53 79.5 53 79.5 46.37 86.12 46.37 86.12 39.75 86.12 33.12 86.12 26.5 86.12 19.87 86.12 13.25 79.5 13.25"/><rect class="cls-1" x="79.5" y="39.75" width="6.63" height="6.63"/><rect class="cls-1" x="79.5" y="33.12" width="6.63" height="6.63"/><rect class="cls-1" x="79.5" y="26.5" width="6.63" height="6.63"/><rect class="cls-1" x="79.5" y="19.87" width="6.63" height="6.62"/><rect class="cls-1" x="79.5" y="13.25" width="6.63" height="6.62"/><rect class="cls-1" x="72.87" y="6.62" width="6.63" height="6.63"/><rect class="cls-1" x="72.87" y="13.25" width="6.63" height="6.62"/><rect class="cls-1" x="72.87" y="19.87" width="6.63" height="6.62"/><rect class="cls-1" x="72.87" y="26.5" width="6.63" height="6.63"/><rect class="cls-1" x="72.87" y="33.12" width="6.63" height="6.63"/><rect class="cls-1" x="72.87" y="39.75" width="6.63" height="6.63"/><rect class="cls-1" x="72.87" y="46.37" width="6.63" height="6.62"/><rect class="cls-1" x="66.25" width="6.62" height="6.62"/><rect class="cls-1" x="66.25" y="6.62" width="6.62" height="6.63"/><rect class="cls-1" x="66.25" y="13.25" width="6.62" height="6.62"/><rect class="cls-1" x="66.25" y="19.87" width="6.62" height="6.62"/><rect class="cls-1" x="66.25" y="26.5" width="6.62" height="6.63"/><rect class="cls-1" x="66.25" y="33.12" width="6.62" height="6.63"/><rect class="cls-1" x="66.25" y="39.75" width="6.62" height="6.63"/><rect class="cls-1" x="66.25" y="46.37" width="6.62" height="6.62"/><rect class="cls-1" x="66.25" y="53" width="6.62" height="6.62"/><rect class="cls-1" x="59.62" y="53" width="6.62" height="6.62"/><rect class="cls-1" x="59.62" y="46.37" width="6.62" height="6.62"/><rect class="cls-1" x="59.62" y="39.75" width="6.62" height="6.63"/><rect class="cls-1" x="59.62" y="33.12" width="6.62" height="6.63"/><rect class="cls-1" x="59.62" y="26.5" width="6.62" height="6.63"/><rect class="cls-1" x="59.62" y="19.87" width="6.62" height="6.62"/><rect class="cls-1" x="59.62" y="13.25" width="6.62" height="6.62"/><rect class="cls-1" x="59.62" y="6.62" width="6.62" height="6.63"/><rect class="cls-1" x="59.62" width="6.62" height="6.62"/><rect class="cls-1" x="53" y="53" width="6.63" height="6.62"/><rect class="cls-1" x="53" y="46.37" width="6.63" height="6.62"/><rect class="cls-1" x="53" y="39.75" width="6.63" height="6.63"/><rect class="cls-1" x="53" y="33.12" width="6.63" height="6.63"/><rect class="cls-1" x="53" y="26.5" width="6.63" height="6.63"/><rect class="cls-1" x="53" y="19.87" width="6.63" height="6.62"/><rect class="cls-1" x="53" y="13.25" width="6.63" height="6.62"/><rect class="cls-1" x="53" y="6.62" width="6.63" height="6.63"/><rect class="cls-1" x="53" width="6.63" height="6.62"/><rect class="cls-1" x="46.37" width="6.63" height="6.62"/><rect class="cls-1" x="46.37" y="6.62" width="6.63" height="6.63"/><rect class="cls-1" x="46.37" y="13.25" width="6.63" height="6.62"/><rect class="cls-1" x="46.37" y="19.87" width="6.63" height="6.62"/><rect class="cls-1" x="46.37" y="26.5" width="6.63" height="6.63"/><rect class="cls-1" x="46.37" y="33.12" width="6.63" height="6.63"/><rect class="cls-1" x="46.37" y="39.75" width="6.63" height="6.63"/><rect class="cls-1" x="46.37" y="46.37" width="6.63" height="6.62"/><rect class="cls-1" x="46.37" y="53" width="6.63" height="6.62"/><rect class="cls-1" x="39.75" width="6.62" height="6.62"/><rect class="cls-1" x="39.75" y="6.62" width="6.62" height="6.63"/><rect class="cls-1" x="39.75" y="13.25" width="6.62" height="6.62"/><rect class="cls-1" x="39.75" y="19.87" width="6.62" height="6.62"/><rect class="cls-1" x="39.75" y="26.5" width="6.62" height="6.63"/><rect class="cls-1" x="39.75" y="33.12" width="6.62" height="6.63"/><rect class="cls-1" x="39.75" y="39.75" width="6.62" height="6.63"/><rect class="cls-1" x="39.75" y="46.37" width="6.62" height="6.62"/><rect class="cls-1" x="39.75" y="53" width="6.62" height="6.62"/><rect class="cls-1" x="33.12" y="6.62" width="6.62" height="6.63"/><rect class="cls-1" x="33.12" y="13.25" width="6.62" height="6.62"/><rect class="cls-1" x="33.12" y="19.87" width="6.62" height="6.62"/><rect class="cls-1" x="33.12" y="26.5" width="6.62" height="6.63"/><rect class="cls-1" x="33.12" y="33.12" width="6.62" height="6.63"/><rect class="cls-1" x="33.12" y="39.75" width="6.62" height="6.63"/><rect class="cls-1" x="33.12" y="46.37" width="6.62" height="6.62"/><rect class="cls-1" x="33.12" y="53" width="6.62" height="6.62"/><rect class="cls-1" x="26.5" y="13.25" width="6.62" height="6.62"/><rect class="cls-1" x="26.5" y="19.87" width="6.62" height="6.62"/><rect class="cls-1" x="26.5" y="26.5" width="6.62" height="6.63"/><rect class="cls-1" x="26.5" y="33.12" width="6.62" height="6.63"/><rect class="cls-1" x="26.5" y="39.75" width="6.62" height="6.63"/><rect class="cls-1" x="26.5" y="46.37" width="6.62" height="6.62"/><rect class="cls-1" x="26.5" y="53" width="6.62" height="6.62"/><rect class="cls-1" x="19.87" y="53" width="6.62" height="6.62"/><rect class="cls-1" x="19.87" y="46.37" width="6.62" height="6.62"/><rect class="cls-1" x="19.87" y="39.75" width="6.62" height="6.63"/><rect class="cls-1" x="13.25" y="53" width="6.62" height="6.62"/><rect class="cls-1" x="13.25" y="46.37" width="6.62" height="6.62"/><rect class="cls-1" x="6.62" y="53" width="6.63" height="6.62"/><rect class="cls-1" y="53" width="6.62" height="6.62"/></g></g></svg>