<svg xmlns="http://www.w3.org/2000/svg" viewBox="0 0 72.87 92.75"><defs><style>.cls-1{fill:#f3725e;}.cls-2{fill:#be5949;}</style></defs><g id="Layer_2" data-name="Layer 2"><g id="Layer_1-2" data-name="Layer 1"><polygon class="cls-1" points="66.24 6.62 66.24 0 59.62 0 53 0 53 6.62 59.62 6.62 59.62 13.25 59.62 19.88 53 19.88 53 13.25 46.37 13.25 39.75 13.25 33.12 13.25 26.5 13.25 19.87 13.25 19.87 19.88 13.25 19.88 13.25 13.25 13.25 6.62 19.87 6.62 19.87 0 13.25 0 6.62 0 6.62 6.62 0 6.62 0 13.25 0 19.88 0 26.5 0 33.12 6.62 33.12 6.62 39.75 6.62 46.37 6.62 53 6.62 59.62 13.25 59.62 13.25 66.25 13.25 72.87 19.87 72.87 19.87 79.5 26.5 79.5 26.5 86.12 33.12 86.12 33.12 92.75 39.75 92.75 39.75 86.12 46.37 86.12 46.37 79.5 53 79.5 53 72.87 59.62 72.87 59.62 66.25 59.62 59.62 66.24 59.62 66.24 53 66.24 46.37 66.24 39.75 66.24 33.12 72.87 33.12 72.87 26.5 72.87 19.88 72.87 13.25 72.87 6.62 66.24 6.62"/><rect class="cls-2" x="66.24" y="6.62" width="6.63" height="6.63"/><rect class="cls-2" x="66.24" y="13.25" width="6.63" height="6.62"/><rect class="cls-2" x="66.24" y="19.87" width="6.63" height="6.62"/><rect class="cls-2" x="66.24" y="26.5" width="6.63" height="6.62"/><rect class="cls-2" x="59.62" width="6.62" height="6.62"/><rect class="cls-2" x="59.62" y="6.62" width="6.62" height="6.63"/><rect class="cls-2" x="59.62" y="13.25" width="6.62" height="6.62"/><rect class="cls-2" x="59.62" y="19.87" width="6.62" height="6.62"/><rect class="cls-1" x="59.62" y="26.5" width="6.62" height="6.62"/><rect class="cls-1" x="59.62" y="33.12" width="6.62" height="6.63"/><rect class="cls-1" x="59.62" y="39.75" width="6.62" height="6.63"/><rect class="cls-1" x="59.62" y="46.37" width="6.62" height="6.62"/><rect class="cls-1" x="59.62" y="53" width="6.62" height="6.62"/><rect class="cls-1" x="53" y="66.25" width="6.62" height="6.62"/><rect class="cls-1" x="53" y="59.62" width="6.62" height="6.63"/><rect class="cls-1" x="53" y="53" width="6.62" height="6.62"/><rect class="cls-1" x="53" y="46.37" width="6.62" height="6.62"/><rect class="cls-1" x="53" y="39.75" width="6.62" height="6.63"/><rect class="cls-1" x="53" y="33.12" width="6.62" height="6.63"/><rect class="cls-1" x="53" y="26.5" width="6.62" height="6.62"/><rect class="cls-1" x="53" y="19.87" width="6.62" height="6.62"/><rect class="cls-2" x="53" width="6.62" height="6.62"/><rect class="cls-1" x="46.37" y="72.87" width="6.62" height="6.62"/><rect class="cls-1" x="46.37" y="66.25" width="6.62" height="6.62"/><rect class="cls-1" x="46.37" y="59.62" width="6.62" height="6.63"/><rect class="cls-1" x="46.37" y="53" width="6.62" height="6.62"/><rect class="cls-1" x="46.37" y="46.37" width="6.62" height="6.62"/><rect class="cls-1" x="46.37" y="39.75" width="6.62" height="6.63"/><rect class="cls-1" x="46.37" y="33.12" width="6.62" height="6.63"/><rect class="cls-1" x="46.37" y="26.5" width="6.62" height="6.62"/><rect class="cls-1" x="46.37" y="19.87" width="6.62" height="6.62"/><rect class="cls-1" x="46.37" y="13.25" width="6.62" height="6.62"/><rect class="cls-1" x="39.75" y="79.5" width="6.63" height="6.62"/><rect class="cls-1" x="39.75" y="72.87" width="6.63" height="6.62"/><rect class="cls-1" x="39.75" y="66.25" width="6.63" height="6.62"/><rect class="cls-1" x="39.75" y="59.62" width="6.63" height="6.63"/><rect class="cls-1" x="39.75" y="53" width="6.63" height="6.62"/><rect class="cls-1" x="39.75" y="46.37" width="6.63" height="6.62"/><rect class="cls-1" x="39.75" y="39.75" width="6.63" height="6.63"/><rect class="cls-1" x="39.75" y="33.12" width="6.63" height="6.63"/><rect class="cls-1" x="39.75" y="26.5" width="6.63" height="6.62"/><rect class="cls-1" x="39.75" y="19.87" width="6.63" height="6.62"/><rect class="cls-1" x="39.75" y="13.25" width="6.63" height="6.62"/><rect class="cls-1" x="33.12" y="86.12" width="6.62" height="6.63"/><rect class="cls-1" x="33.12" y="79.5" width="6.62" height="6.62"/><rect class="cls-1" x="33.12" y="72.87" width="6.62" height="6.62"/><rect class="cls-1" x="33.12" y="66.25" width="6.62" height="6.62"/><rect class="cls-1" x="33.12" y="59.62" width="6.62" height="6.63"/><rect class="cls-1" x="33.12" y="53" width="6.62" height="6.62"/><rect class="cls-1" x="33.12" y="46.37" width="6.62" height="6.62"/><rect class="cls-1" x="33.12" y="39.75" width="6.62" height="6.63"/><rect class="cls-1" x="33.12" y="33.12" width="6.62" height="6.63"/><rect class="cls-1" x="33.12" y="26.5" width="6.62" height="6.62"/><rect class="cls-1" x="33.12" y="19.87" width="6.62" height="6.62"/><rect class="cls-1" x="33.12" y="13.25" width="6.62" height="6.62"/><rect class="cls-1" x="26.5" y="79.5" width="6.62" height="6.62"/><rect class="cls-1" x="26.5" y="72.87" width="6.62" height="6.62"/><rect class="cls-1" x="26.5" y="66.25" width="6.62" height="6.62"/><rect class="cls-1" x="26.5" y="59.62" width="6.62" height="6.63"/><rect class="cls-1" x="26.5" y="53" width="6.62" height="6.62"/><rect class="cls-1" x="26.5" y="46.37" width="6.62" height="6.62"/><rect class="cls-1" x="26.5" y="39.75" width="6.62" height="6.63"/><rect class="cls-1" x="26.5" y="33.12" width="6.62" height="6.63"/><rect class="cls-1" x="26.5" y="26.5" width="6.62" height="6.62"/><rect class="cls-1" x="26.5" y="19.87" width="6.62" height="6.62"/><rect class="cls-1" x="26.5" y="13.25" width="6.62" height="6.62"/><rect class="cls-1" x="19.87" y="72.87" width="6.62" height="6.62"/><rect class="cls-1" x="19.87" y="66.25" width="6.62" height="6.62"/><rect class="cls-1" x="19.87" y="59.62" width="6.62" height="6.63"/><rect class="cls-1" x="19.87" y="53" width="6.62" height="6.62"/><rect class="cls-1" x="19.87" y="46.37" width="6.62" height="6.62"/><rect class="cls-1" x="19.87" y="39.75" width="6.62" height="6.63"/><rect class="cls-1" x="19.87" y="33.12" width="6.62" height="6.63"/><rect class="cls-1" x="19.87" y="26.5" width="6.62" height="6.62"/><rect class="cls-1" x="19.87" y="19.87" width="6.62" height="6.62"/><rect class="cls-1" x="19.87" y="13.25" width="6.62" height="6.62"/><rect class="cls-1" x="13.25" y="66.25" width="6.62" height="6.62"/><rect class="cls-1" x="13.25" y="59.62" width="6.62" height="6.63"/><rect class="cls-1" x="13.25" y="53" width="6.62" height="6.62"/><rect class="cls-1" x="13.25" y="46.37" width="6.62" height="6.62"/><rect class="cls-1" x="13.25" y="39.75" width="6.62" height="6.63"/><rect class="cls-1" x="13.25" y="33.12" width="6.62" height="6.63"/><rect class="cls-1" x="13.25" y="26.5" width="6.62" height="6.62"/><rect class="cls-1" x="13.25" y="19.87" width="6.62" height="6.62"/><rect class="cls-2" x="13.25" width="6.62" height="6.62"/><rect class="cls-1" x="6.62" y="53" width="6.63" height="6.62"/><rect class="cls-1" x="6.62" y="46.37" width="6.63" height="6.62"/><rect class="cls-1" x="6.62" y="39.75" width="6.63" height="6.63"/><rect class="cls-1" x="6.62" y="33.12" width="6.63" height="6.63"/><rect class="cls-1" x="6.62" y="26.5" width="6.63" height="6.62"/><rect class="cls-2" x="6.62" y="19.87" width="6.63" height="6.62"/><rect class="cls-2" x="6.62" y="13.25" width="6.63" height="6.62"/><rect class="cls-2" x="6.62" y="6.62" width="6.63" height="6.63"/><rect class="cls-2" x="6.62" width="6.63" height="6.62"/><rect class="cls-2" y="26.5" width="6.62" height="6.62"/><rect class="cls-2" y="19.87" width="6.62" height="6.62"/><rect class="cls-2" y="13.25" width="6.62" height="6.62"/><rect class="cls-2" y="6.62" width="6.62" height="6.63"/></g></g></svg>