<svg xmlns="http://www.w3.org/2000/svg" viewBox="0 0 72.87 79.51"><defs><style>.cls-1{fill:#ffc62f;}</style></defs><g id="Layer_2" data-name="Layer 2"><g id="Layer_1-2" data-name="Layer 1"><polygon class="cls-1" points="66.25 6.63 66.25 0 59.62 0 52.99 0 46.37 0 39.75 0 33.13 0 26.5 0 19.87 0 13.25 0 6.63 0 6.63 6.63 0 6.63 0 13.25 0 19.88 0 26.5 0 33.13 0 39.75 0 46.38 0 53 6.63 53 13.25 53 19.87 53 26.5 53 33.13 53 39.75 53 46.37 53 52.99 53 59.62 53 66.25 53 66.25 46.38 72.87 46.38 72.87 39.75 72.87 33.13 72.87 26.5 72.87 19.88 72.87 13.25 72.87 6.63 66.25 6.63"/><polygon class="cls-1" points="6.63 53.01 0 53.01 0 59.63 0 66.26 0 72.89 0 79.51 6.63 79.51 6.63 72.89 6.63 66.26 13.25 66.26 13.25 59.63 19.87 59.63 19.87 53.01 13.25 53.01 6.63 53.01"/><rect class="cls-1" x="66.25" y="39.75" width="6.62" height="6.63"/><rect class="cls-1" x="66.25" y="33.13" width="6.62" height="6.62"/><rect class="cls-1" x="66.25" y="26.5" width="6.62" height="6.63"/><rect class="cls-1" x="66.25" y="19.88" width="6.62" height="6.62"/><rect class="cls-1" x="66.25" y="13.25" width="6.62" height="6.62"/><rect class="cls-1" x="66.25" y="6.63" width="6.62" height="6.63"/><rect class="cls-1" x="59.62" y="46.38" width="6.62" height="6.62"/><rect class="cls-1" x="59.62" y="39.75" width="6.62" height="6.63"/><rect class="cls-1" x="59.62" y="33.13" width="6.62" height="6.62"/><rect class="cls-1" x="59.62" y="26.5" width="6.62" height="6.63"/><rect class="cls-1" x="59.62" y="19.88" width="6.62" height="6.62"/><rect class="cls-1" x="59.62" y="13.25" width="6.62" height="6.62"/><rect class="cls-1" x="59.62" y="6.63" width="6.62" height="6.63"/><rect class="cls-1" x="59.62" width="6.62" height="6.63"/><rect class="cls-1" x="53" width="6.63" height="6.63"/><rect class="cls-1" x="53" y="6.63" width="6.63" height="6.63"/><rect class="cls-1" x="53" y="13.25" width="6.63" height="6.62"/><rect class="cls-1" x="53" y="19.88" width="6.63" height="6.62"/><rect class="cls-1" x="53" y="26.5" width="6.63" height="6.63"/><rect class="cls-1" x="53" y="33.13" width="6.63" height="6.62"/><rect class="cls-1" x="53" y="39.75" width="6.63" height="6.63"/><rect class="cls-1" x="53" y="46.38" width="6.63" height="6.62"/><rect class="cls-1" x="46.37" width="6.62" height="6.63"/><rect class="cls-1" x="46.37" y="6.63" width="6.62" height="6.63"/><rect class="cls-1" x="46.37" y="13.25" width="6.62" height="6.62"/><rect class="cls-1" x="46.37" y="19.88" width="6.62" height="6.62"/><rect class="cls-1" x="46.37" y="26.5" width="6.62" height="6.63"/><rect class="cls-1" x="46.37" y="33.13" width="6.62" height="6.62"/><rect class="cls-1" x="46.37" y="39.75" width="6.62" height="6.63"/><rect class="cls-1" x="46.37" y="46.38" width="6.62" height="6.62"/><rect class="cls-1" x="39.75" y="46.38" width="6.62" height="6.62"/><rect class="cls-1" x="39.75" y="39.75" width="6.62" height="6.63"/><rect class="cls-1" x="39.75" y="33.13" width="6.62" height="6.62"/><rect class="cls-1" x="39.75" y="26.5" width="6.62" height="6.63"/><rect class="cls-1" x="39.75" y="19.88" width="6.62" height="6.62"/><rect class="cls-1" x="39.75" y="13.25" width="6.62" height="6.62"/><rect class="cls-1" x="39.75" y="6.63" width="6.62" height="6.63"/><rect class="cls-1" x="39.75" width="6.62" height="6.63"/><rect class="cls-1" x="33.12" y="46.38" width="6.62" height="6.62"/><rect class="cls-1" x="33.12" y="39.75" width="6.62" height="6.63"/><rect class="cls-1" x="33.12" y="33.13" width="6.62" height="6.62"/><rect class="cls-1" x="33.12" y="26.5" width="6.62" height="6.63"/><rect class="cls-1" x="33.12" y="19.88" width="6.62" height="6.62"/><rect class="cls-1" x="33.12" y="13.25" width="6.62" height="6.62"/><rect class="cls-1" x="33.12" y="6.63" width="6.62" height="6.63"/><rect class="cls-1" x="33.12" width="6.62" height="6.63"/><rect class="cls-1" x="26.5" y="46.38" width="6.63" height="6.62"/><rect class="cls-1" x="26.5" y="39.75" width="6.63" height="6.63"/><rect class="cls-1" x="26.5" y="33.13" width="6.63" height="6.62"/><rect class="cls-1" x="26.5" y="26.5" width="6.63" height="6.63"/><rect class="cls-1" x="26.5" y="19.88" width="6.63" height="6.62"/><rect class="cls-1" x="26.5" y="13.25" width="6.63" height="6.62"/><rect class="cls-1" x="26.5" y="6.63" width="6.63" height="6.63"/><rect class="cls-1" x="26.5" width="6.63" height="6.63"/><rect class="cls-1" x="19.87" width="6.63" height="6.63"/><rect class="cls-1" x="19.87" y="6.63" width="6.63" height="6.63"/><rect class="cls-1" x="19.87" y="13.25" width="6.63" height="6.62"/><rect class="cls-1" x="19.87" y="19.88" width="6.63" height="6.62"/><rect class="cls-1" x="19.87" y="26.5" width="6.63" height="6.63"/><rect class="cls-1" x="19.87" y="33.13" width="6.63" height="6.62"/><rect class="cls-1" x="19.87" y="39.75" width="6.63" height="6.63"/><rect class="cls-1" x="19.87" y="46.38" width="6.63" height="6.62"/><rect class="cls-1" x="13.25" width="6.62" height="6.63"/><rect class="cls-1" x="13.25" y="6.63" width="6.62" height="6.63"/><rect class="cls-1" x="13.25" y="13.25" width="6.62" height="6.62"/><rect class="cls-1" x="13.25" y="19.88" width="6.62" height="6.62"/><rect class="cls-1" x="13.25" y="26.5" width="6.62" height="6.63"/><rect class="cls-1" x="13.25" y="33.13" width="6.62" height="6.62"/><rect class="cls-1" x="13.25" y="39.75" width="6.62" height="6.63"/><rect class="cls-1" x="13.25" y="46.38" width="6.62" height="6.62"/><rect class="cls-1" x="6.63" y="46.38" width="6.62" height="6.62"/><rect class="cls-1" x="6.63" y="39.75" width="6.62" height="6.63"/><rect class="cls-1" x="6.63" y="33.13" width="6.62" height="6.62"/><rect class="cls-1" x="6.63" y="26.5" width="6.62" height="6.63"/><rect class="cls-1" x="6.63" y="19.88" width="6.62" height="6.62"/><rect class="cls-1" x="6.63" y="13.25" width="6.62" height="6.62"/><rect class="cls-1" x="6.63" y="6.63" width="6.62" height="6.63"/><rect class="cls-1" x="6.63" width="6.62" height="6.63"/><rect class="cls-1" y="46.38" width="6.63" height="6.62"/><rect class="cls-1" y="39.75" width="6.63" height="6.63"/><rect class="cls-1" y="33.13" width="6.63" height="6.62"/><rect class="cls-1" y="26.5" width="6.63" height="6.63"/><rect class="cls-1" y="19.88" width="6.63" height="6.62"/><rect class="cls-1" y="13.25" width="6.63" height="6.62"/><rect class="cls-1" y="6.63" width="6.63" height="6.63"/><rect class="cls-1" x="13.25" y="53.01" width="6.62" height="6.63"/><rect class="cls-1" x="6.63" y="59.63" width="6.62" height="6.62"/><rect class="cls-1" x="6.63" y="53.01" width="6.62" height="6.63"/><rect class="cls-1" y="72.88" width="6.63" height="6.62"/><rect class="cls-1" y="66.26" width="6.63" height="6.63"/><rect class="cls-1" y="59.63" width="6.63" height="6.62"/><rect class="cls-1" y="53.01" width="6.63" height="6.63"/></g></g></svg>