<svg xmlns="http://www.w3.org/2000/svg" viewBox="0 0 72.87 119.24"><defs><style>.cls-1{fill:#919396;}.cls-2{fill:#6b6c6f;}</style></defs><g id="Layer_2" data-name="Layer 2"><g id="Layer_1-2" data-name="Layer 1"><path class="cls-1" d="M66.25,13.25V6.62H59.62V0H13.25V6.62H6.62v6.63H0V59.62H6.62v6.62h6.63v6.63H26.5v46.37H46.38V72.87H59.62V66.24h6.63V59.62h6.62V13.25ZM59.62,33.12V46.37H53V53H46.38v6.62H26.5V53H19.88V46.37H13.25V26.5h6.63V19.88H26.5V13.25H46.38v6.63H53V26.5h6.62Z"/><rect class="cls-1" x="6.62" y="59.62" width="6.63" height="6.63"/><rect class="cls-1" x="6.62" y="53" width="6.63" height="6.62"/><rect class="cls-2" x="6.62" y="46.37" width="6.63" height="6.62"/><rect class="cls-2" x="6.62" y="39.75" width="6.63" height="6.63"/><rect class="cls-2" x="6.62" y="33.12" width="6.63" height="6.62"/><rect class="cls-2" x="6.62" y="26.5" width="6.63" height="6.63"/><rect class="cls-2" x="6.62" y="19.88" width="6.63" height="6.62"/><rect class="cls-1" x="6.62" y="13.25" width="6.63" height="6.63"/><rect class="cls-1" x="6.62" y="6.62" width="6.63" height="6.63"/><rect class="cls-1" y="53" width="6.62" height="6.62"/><rect class="cls-1" y="46.37" width="6.62" height="6.62"/><rect class="cls-1" y="39.75" width="6.62" height="6.63"/><rect class="cls-1" y="33.12" width="6.62" height="6.62"/><rect class="cls-1" y="26.5" width="6.62" height="6.63"/><rect class="cls-1" y="19.88" width="6.62" height="6.62"/><rect class="cls-1" y="13.25" width="6.62" height="6.63"/><rect class="cls-1" x="66.25" y="53" width="6.63" height="6.62"/><rect class="cls-1" x="66.25" y="46.37" width="6.63" height="6.62"/><rect class="cls-1" x="66.25" y="39.75" width="6.63" height="6.63"/><rect class="cls-1" x="66.25" y="33.12" width="6.63" height="6.62"/><rect class="cls-1" x="66.25" y="26.5" width="6.63" height="6.63"/><rect class="cls-1" x="66.25" y="19.88" width="6.63" height="6.62"/><rect class="cls-1" x="66.25" y="13.25" width="6.63" height="6.63"/><rect class="cls-1" x="59.62" y="59.62" width="6.62" height="6.63"/><rect class="cls-1" x="59.62" y="53" width="6.62" height="6.62"/><rect class="cls-2" x="59.62" y="46.37" width="6.62" height="6.62"/><rect class="cls-2" x="59.62" y="39.75" width="6.62" height="6.63"/><rect class="cls-2" x="59.62" y="33.12" width="6.62" height="6.62"/><rect class="cls-2" x="59.62" y="26.5" width="6.62" height="6.63"/><rect class="cls-2" x="59.62" y="19.88" width="6.62" height="6.62"/><rect class="cls-1" x="59.62" y="13.25" width="6.62" height="6.63"/><rect class="cls-1" x="59.62" y="6.62" width="6.62" height="6.63"/><rect class="cls-1" x="53" y="66.24" width="6.62" height="6.63"/><rect class="cls-1" x="53" y="59.62" width="6.62" height="6.63"/><rect class="cls-2" x="53" y="53" width="6.62" height="6.62"/><rect class="cls-2" x="53" y="46.37" width="6.62" height="6.62"/><rect class="cls-2" x="53" y="19.88" width="6.62" height="6.62"/><rect class="cls-2" x="53" y="13.25" width="6.62" height="6.63"/><rect class="cls-1" x="53" y="6.62" width="6.62" height="6.63"/><rect class="cls-1" x="53" width="6.62" height="6.62"/><rect class="cls-1" x="46.38" y="66.24" width="6.62" height="6.63"/><rect class="cls-2" x="46.38" y="59.62" width="6.62" height="6.63"/><rect class="cls-2" x="46.38" y="53" width="6.62" height="6.62"/><rect class="cls-2" x="46.38" y="13.25" width="6.62" height="6.63"/><rect class="cls-2" x="46.38" y="6.62" width="6.62" height="6.63"/><rect class="cls-1" x="46.38" width="6.62" height="6.62"/><rect class="cls-1" x="39.75" width="6.63" height="6.62"/><rect class="cls-2" x="39.75" y="6.62" width="6.63" height="6.63"/><rect class="cls-2" x="39.75" y="59.62" width="6.63" height="6.63"/><rect class="cls-1" x="39.75" y="66.24" width="6.63" height="6.63"/><rect class="cls-2" x="39.75" y="72.87" width="6.63" height="6.62"/><rect class="cls-1" x="39.75" y="79.5" width="6.63" height="6.62"/><rect class="cls-2" x="39.75" y="86.12" width="6.63" height="6.62"/><rect class="cls-1" x="39.75" y="92.74" width="6.63" height="6.63"/><rect class="cls-2" x="39.75" y="99.37" width="6.63" height="6.62"/><rect class="cls-1" x="39.75" y="105.99" width="6.63" height="6.62"/><rect class="cls-2" x="39.75" y="112.62" width="6.63" height="6.62"/><rect class="cls-1" x="33.12" width="6.62" height="6.62"/><rect class="cls-2" x="33.12" y="6.62" width="6.62" height="6.63"/><rect class="cls-2" x="33.12" y="59.62" width="6.62" height="6.63"/><rect class="cls-1" x="33.12" y="66.24" width="6.62" height="6.63"/><rect class="cls-2" x="33.12" y="72.87" width="6.62" height="6.62"/><rect class="cls-1" x="33.12" y="79.5" width="6.62" height="6.62"/><rect class="cls-2" x="33.12" y="86.12" width="6.62" height="6.62"/><rect class="cls-1" x="33.12" y="92.74" width="6.62" height="6.63"/><rect class="cls-2" x="33.12" y="99.37" width="6.62" height="6.62"/><rect class="cls-1" x="33.12" y="105.99" width="6.62" height="6.62"/><rect class="cls-2" x="33.12" y="112.62" width="6.62" height="6.62"/><rect class="cls-1" x="26.5" width="6.62" height="6.62"/><rect class="cls-2" x="26.5" y="6.62" width="6.62" height="6.63"/><rect class="cls-2" x="26.5" y="59.62" width="6.62" height="6.63"/><rect class="cls-1" x="26.5" y="66.24" width="6.62" height="6.63"/><rect class="cls-2" x="26.5" y="72.87" width="6.62" height="6.62"/><rect class="cls-1" x="26.5" y="79.5" width="6.62" height="6.62"/><rect class="cls-2" x="26.5" y="86.12" width="6.62" height="6.62"/><rect class="cls-1" x="26.5" y="92.74" width="6.62" height="6.63"/><rect class="cls-2" x="26.5" y="99.37" width="6.62" height="6.62"/><rect class="cls-1" x="26.5" y="105.99" width="6.62" height="6.62"/><rect class="cls-2" x="26.5" y="112.62" width="6.62" height="6.62"/><rect class="cls-1" x="19.88" y="66.24" width="6.62" height="6.63"/><rect class="cls-2" x="19.88" y="59.62" width="6.62" height="6.63"/><rect class="cls-2" x="19.88" y="53" width="6.62" height="6.62"/><rect class="cls-2" x="19.88" y="13.25" width="6.62" height="6.63"/><rect class="cls-2" x="19.88" y="6.62" width="6.62" height="6.63"/><rect class="cls-1" x="19.88" width="6.62" height="6.62"/><rect class="cls-1" x="13.25" y="66.24" width="6.63" height="6.63"/><rect class="cls-1" x="13.25" y="59.62" width="6.63" height="6.63"/><rect class="cls-2" x="13.25" y="53" width="6.63" height="6.62"/><rect class="cls-2" x="13.25" y="46.37" width="6.63" height="6.62"/><rect class="cls-2" x="13.25" y="19.88" width="6.63" height="6.62"/><rect class="cls-2" x="13.25" y="13.25" width="6.63" height="6.63"/><rect class="cls-1" x="13.25" y="6.62" width="6.63" height="6.63"/><rect class="cls-1" x="13.25" width="6.63" height="6.62"/></g></g></svg>