<svg xmlns="http://www.w3.org/2000/svg" viewBox="0 0 231.86 53"><defs><style>.cls-1{fill:#f3725e;}</style></defs><g id="Layer_2" data-name="Layer 2"><g id="Layer_1-2" data-name="Layer 1"><polygon class="cls-1" points="225.24 6.63 225.24 0 218.61 0 211.99 0 205.36 0 198.74 0 192.12 0 185.49 0 178.87 0 172.24 0 165.62 0 158.99 0 152.37 0 145.74 0 139.12 0 132.49 0 125.87 0 119.24 0 112.62 0 105.99 0 99.37 0 92.75 0 86.12 0 79.5 0 72.87 0 66.24 0 59.62 0 53 0 46.37 0 39.74 0 39.74 6.63 33.12 6.63 33.12 13.25 33.12 19.88 33.12 26.5 33.12 33.12 26.5 33.12 26.5 39.75 19.87 39.75 13.25 39.75 13.25 46.37 6.62 46.37 0 46.37 0 53 6.62 53 13.25 53 19.87 53 26.5 53 33.12 53 39.74 53 46.37 53 53 53 59.62 53 66.24 53 72.87 53 79.5 53 86.12 53 92.75 53 99.37 53 105.99 53 112.62 53 119.24 53 125.87 53 132.49 53 139.12 53 145.74 53 152.37 53 158.99 53 165.62 53 172.24 53 178.87 53 185.49 53 192.12 53 198.74 53 205.36 53 211.99 53 218.61 53 225.24 53 225.24 46.37 231.86 46.37 231.86 39.75 231.86 33.12 231.86 26.5 231.86 19.88 231.86 13.25 231.86 6.63 225.24 6.63"/><rect class="cls-1" x="72.87" y="46.37" width="6.63" height="6.62"/><rect class="cls-1" x="72.87" y="39.75" width="6.63" height="6.63"/><rect class="cls-1" x="72.87" y="33.12" width="6.63" height="6.62"/><rect class="cls-1" x="72.87" y="26.5" width="6.63" height="6.62"/><rect class="cls-1" x="72.87" y="19.88" width="6.63" height="6.63"/><rect class="cls-1" x="72.87" y="13.25" width="6.63" height="6.62"/><rect class="cls-1" x="72.87" y="6.63" width="6.63" height="6.63"/><rect class="cls-1" x="72.87" width="6.63" height="6.63"/><rect class="cls-1" x="66.24" y="46.37" width="6.62" height="6.62"/><rect class="cls-1" x="66.24" y="39.75" width="6.62" height="6.63"/><rect class="cls-1" x="66.24" y="33.12" width="6.62" height="6.62"/><rect class="cls-1" x="66.24" y="26.5" width="6.62" height="6.62"/><rect class="cls-1" x="66.24" y="19.88" width="6.62" height="6.63"/><rect class="cls-1" x="66.24" y="13.25" width="6.62" height="6.62"/><rect class="cls-1" x="66.24" y="6.63" width="6.62" height="6.63"/><rect class="cls-1" x="66.24" width="6.62" height="6.63"/><rect class="cls-1" x="59.62" y="46.37" width="6.62" height="6.62"/><rect class="cls-1" x="59.62" y="39.75" width="6.62" height="6.63"/><rect class="cls-1" x="59.62" y="33.12" width="6.62" height="6.62"/><rect class="cls-1" x="59.62" y="26.5" width="6.62" height="6.62"/><rect class="cls-1" x="59.62" y="19.88" width="6.62" height="6.63"/><rect class="cls-1" x="59.62" y="13.25" width="6.62" height="6.62"/><rect class="cls-1" x="59.62" y="6.63" width="6.62" height="6.63"/><rect class="cls-1" x="59.62" width="6.62" height="6.63"/><rect class="cls-1" x="53" y="46.37" width="6.62" height="6.62"/><rect class="cls-1" x="53" y="39.75" width="6.62" height="6.63"/><rect class="cls-1" x="53" y="33.12" width="6.62" height="6.62"/><rect class="cls-1" x="53" y="26.5" width="6.62" height="6.62"/><rect class="cls-1" x="53" y="19.88" width="6.62" height="6.63"/><rect class="cls-1" x="53" y="13.25" width="6.62" height="6.62"/><rect class="cls-1" x="53" y="6.63" width="6.62" height="6.63"/><rect class="cls-1" x="53" width="6.62" height="6.63"/><rect class="cls-1" x="46.37" y="46.37" width="6.63" height="6.62"/><rect class="cls-1" x="46.37" y="39.75" width="6.63" height="6.63"/><rect class="cls-1" x="46.37" y="33.12" width="6.63" height="6.62"/><rect class="cls-1" x="46.37" y="26.5" width="6.63" height="6.62"/><rect class="cls-1" x="46.37" y="19.88" width="6.63" height="6.63"/><rect class="cls-1" x="46.37" y="13.25" width="6.63" height="6.62"/><rect class="cls-1" x="46.37" y="6.63" width="6.63" height="6.63"/><rect class="cls-1" x="46.37" width="6.63" height="6.63"/><rect class="cls-1" x="39.75" y="46.37" width="6.63" height="6.62"/><rect class="cls-1" x="39.75" y="39.75" width="6.63" height="6.63"/><rect class="cls-1" x="39.75" y="33.12" width="6.63" height="6.62"/><rect class="cls-1" x="39.75" y="26.5" width="6.63" height="6.62"/><rect class="cls-1" x="39.75" y="19.88" width="6.63" height="6.63"/><rect class="cls-1" x="39.75" y="13.25" width="6.63" height="6.62"/><rect class="cls-1" x="39.75" y="6.63" width="6.63" height="6.63"/><rect class="cls-1" x="39.75" width="6.63" height="6.63"/><rect class="cls-1" x="33.12" y="46.37" width="6.62" height="6.62"/><rect class="cls-1" x="33.12" y="39.75" width="6.62" height="6.63"/><rect class="cls-1" x="33.12" y="33.12" width="6.62" height="6.62"/><rect class="cls-1" x="33.12" y="26.5" width="6.62" height="6.62"/><rect class="cls-1" x="33.12" y="19.88" width="6.62" height="6.63"/><rect class="cls-1" x="33.12" y="13.25" width="6.62" height="6.62"/><rect class="cls-1" x="33.12" y="6.63" width="6.62" height="6.63"/><rect class="cls-1" x="26.5" y="46.37" width="6.62" height="6.62"/><rect class="cls-1" x="26.5" y="39.75" width="6.62" height="6.63"/><rect class="cls-1" x="26.5" y="33.12" width="6.62" height="6.62"/><rect class="cls-1" x="19.87" y="39.75" width="6.63" height="6.63"/><rect class="cls-1" x="19.87" y="46.37" width="6.63" height="6.62"/><rect class="cls-1" x="13.25" y="46.37" width="6.62" height="6.62"/><rect class="cls-1" x="13.25" y="39.75" width="6.62" height="6.63"/><rect class="cls-1" x="6.62" y="46.37" width="6.63" height="6.62"/><rect class="cls-1" y="46.37" width="6.62" height="6.62"/><rect class="cls-1" x="225.24" y="39.75" width="6.62" height="6.63"/><rect class="cls-1" x="225.24" y="33.12" width="6.62" height="6.62"/><rect class="cls-1" x="225.24" y="26.5" width="6.62" height="6.62"/><rect class="cls-1" x="225.24" y="19.88" width="6.62" height="6.63"/><rect class="cls-1" x="225.24" y="13.25" width="6.62" height="6.62"/><rect class="cls-1" x="225.24" y="6.63" width="6.62" height="6.63"/><rect class="cls-1" x="218.61" y="46.37" width="6.63" height="6.62"/><rect class="cls-1" x="218.61" y="39.75" width="6.63" height="6.63"/><rect class="cls-1" x="218.61" y="33.12" width="6.63" height="6.62"/><rect class="cls-1" x="218.61" y="26.5" width="6.63" height="6.62"/><rect class="cls-1" x="218.61" y="19.88" width="6.63" height="6.63"/><rect class="cls-1" x="218.61" y="13.25" width="6.63" height="6.62"/><rect class="cls-1" x="218.61" y="6.63" width="6.63" height="6.63"/><rect class="cls-1" x="218.61" width="6.63" height="6.63"/><rect class="cls-1" x="211.99" y="46.37" width="6.63" height="6.62"/><rect class="cls-1" x="211.99" y="39.75" width="6.63" height="6.63"/><rect class="cls-1" x="211.99" y="33.12" width="6.63" height="6.62"/><rect class="cls-1" x="211.99" y="26.5" width="6.63" height="6.62"/><rect class="cls-1" x="211.99" y="19.88" width="6.63" height="6.63"/><rect class="cls-1" x="211.99" y="13.25" width="6.63" height="6.62"/><rect class="cls-1" x="211.99" y="6.63" width="6.63" height="6.63"/><rect class="cls-1" x="211.99" width="6.63" height="6.63"/><rect class="cls-1" x="205.36" width="6.63" height="6.63"/><rect class="cls-1" x="205.36" y="6.63" width="6.63" height="6.63"/><rect class="cls-1" x="205.36" y="13.25" width="6.63" height="6.62"/><rect class="cls-1" x="205.36" y="19.88" width="6.63" height="6.63"/><rect class="cls-1" x="205.36" y="26.5" width="6.63" height="6.62"/><rect class="cls-1" x="205.36" y="33.12" width="6.63" height="6.62"/><rect class="cls-1" x="205.36" y="39.75" width="6.63" height="6.63"/><rect class="cls-1" x="205.36" y="46.37" width="6.63" height="6.62"/><rect class="cls-1" x="198.74" width="6.62" height="6.63"/><rect class="cls-1" x="198.74" y="6.63" width="6.62" height="6.63"/><rect class="cls-1" x="198.74" y="13.25" width="6.62" height="6.62"/><rect class="cls-1" x="198.74" y="19.88" width="6.62" height="6.63"/><rect class="cls-1" x="198.74" y="26.5" width="6.62" height="6.62"/><rect class="cls-1" x="198.74" y="33.12" width="6.62" height="6.62"/><rect class="cls-1" x="198.74" y="39.75" width="6.62" height="6.63"/><rect class="cls-1" x="198.74" y="46.37" width="6.62" height="6.62"/><rect class="cls-1" x="192.12" y="46.37" width="6.62" height="6.62"/><rect class="cls-1" x="192.12" y="39.75" width="6.62" height="6.63"/><rect class="cls-1" x="192.12" y="33.12" width="6.62" height="6.62"/><rect class="cls-1" x="192.12" y="26.5" width="6.62" height="6.62"/><rect class="cls-1" x="192.12" y="19.88" width="6.62" height="6.63"/><rect class="cls-1" x="192.12" y="13.25" width="6.62" height="6.62"/><rect class="cls-1" x="192.12" y="6.63" width="6.62" height="6.63"/><rect class="cls-1" x="192.12" width="6.62" height="6.63"/><rect class="cls-1" x="185.49" y="46.37" width="6.63" height="6.62"/><rect class="cls-1" x="185.49" y="39.75" width="6.63" height="6.63"/><rect class="cls-1" x="185.49" y="33.12" width="6.63" height="6.62"/><rect class="cls-1" x="185.49" y="26.5" width="6.63" height="6.62"/><rect class="cls-1" x="185.49" y="19.88" width="6.63" height="6.63"/><rect class="cls-1" x="185.49" y="13.25" width="6.63" height="6.62"/><rect class="cls-1" x="185.49" y="6.63" width="6.63" height="6.63"/><rect class="cls-1" x="185.49" width="6.63" height="6.63"/><rect class="cls-1" x="178.87" y="46.37" width="6.63" height="6.62"/><rect class="cls-1" x="178.87" y="39.75" width="6.63" height="6.63"/><rect class="cls-1" x="178.87" y="33.12" width="6.63" height="6.62"/><rect class="cls-1" x="178.87" y="26.5" width="6.63" height="6.62"/><rect class="cls-1" x="178.87" y="19.88" width="6.63" height="6.63"/><rect class="cls-1" x="178.87" y="13.25" width="6.63" height="6.62"/><rect class="cls-1" x="178.87" y="6.63" width="6.63" height="6.63"/><rect class="cls-1" x="178.87" width="6.63" height="6.63"/><rect class="cls-1" x="172.24" width="6.63" height="6.63"/><rect class="cls-1" x="172.24" y="6.63" width="6.63" height="6.63"/><rect class="cls-1" x="172.24" y="13.25" width="6.63" height="6.62"/><rect class="cls-1" x="172.24" y="19.88" width="6.63" height="6.63"/><rect class="cls-1" x="172.24" y="26.5" width="6.63" height="6.62"/><rect class="cls-1" x="172.24" y="33.12" width="6.63" height="6.62"/><rect class="cls-1" x="172.24" y="39.75" width="6.63" height="6.63"/><rect class="cls-1" x="172.24" y="46.37" width="6.63" height="6.62"/><rect class="cls-1" x="165.62" width="6.62" height="6.63"/><rect class="cls-1" x="165.62" y="6.63" width="6.62" height="6.63"/><rect class="cls-1" x="165.62" y="13.25" width="6.62" height="6.62"/><rect class="cls-1" x="165.62" y="19.88" width="6.62" height="6.63"/><rect class="cls-1" x="165.62" y="26.5" width="6.62" height="6.62"/><rect class="cls-1" x="165.62" y="33.12" width="6.62" height="6.62"/><rect class="cls-1" x="165.62" y="39.75" width="6.62" height="6.63"/><rect class="cls-1" x="165.62" y="46.37" width="6.62" height="6.62"/><rect class="cls-1" x="158.99" width="6.62" height="6.63"/><rect class="cls-1" x="158.99" y="6.63" width="6.62" height="6.63"/><rect class="cls-1" x="158.99" y="13.25" width="6.62" height="6.62"/><rect class="cls-1" x="158.99" y="19.88" width="6.62" height="6.63"/><rect class="cls-1" x="158.99" y="26.5" width="6.62" height="6.62"/><rect class="cls-1" x="158.99" y="33.12" width="6.62" height="6.62"/><rect class="cls-1" x="158.99" y="39.75" width="6.62" height="6.63"/><rect class="cls-1" x="158.99" y="46.37" width="6.62" height="6.62"/><rect class="cls-1" x="152.37" y="46.37" width="6.62" height="6.62"/><rect class="cls-1" x="152.37" y="39.75" width="6.62" height="6.63"/><rect class="cls-1" x="152.37" y="33.12" width="6.62" height="6.62"/><rect class="cls-1" x="152.37" y="26.5" width="6.62" height="6.62"/><rect class="cls-1" x="152.37" y="19.88" width="6.62" height="6.63"/><rect class="cls-1" x="152.37" y="13.25" width="6.62" height="6.62"/><rect class="cls-1" x="152.37" y="6.63" width="6.62" height="6.63"/><rect class="cls-1" x="152.37" width="6.62" height="6.63"/><rect class="cls-1" x="145.74" y="46.37" width="6.63" height="6.62"/><rect class="cls-1" x="145.74" y="39.75" width="6.63" height="6.63"/><rect class="cls-1" x="145.74" y="33.12" width="6.63" height="6.62"/><rect class="cls-1" x="145.74" y="26.5" width="6.63" height="6.62"/><rect class="cls-1" x="145.74" y="19.88" width="6.63" height="6.63"/><rect class="cls-1" x="145.74" y="13.25" width="6.63" height="6.62"/><rect class="cls-1" x="145.74" y="6.63" width="6.63" height="6.63"/><rect class="cls-1" x="145.74" width="6.63" height="6.63"/><rect class="cls-1" x="139.12" y="46.37" width="6.62" height="6.62"/><rect class="cls-1" x="139.12" y="39.75" width="6.62" height="6.63"/><rect class="cls-1" x="139.12" y="33.12" width="6.62" height="6.62"/><rect class="cls-1" x="139.12" y="26.5" width="6.62" height="6.62"/><rect class="cls-1" x="139.12" y="19.88" width="6.62" height="6.63"/><rect class="cls-1" x="139.12" y="13.25" width="6.62" height="6.62"/><rect class="cls-1" x="139.12" y="6.63" width="6.62" height="6.63"/><rect class="cls-1" x="139.12" width="6.62" height="6.63"/><rect class="cls-1" x="132.49" y="46.37" width="6.63" height="6.62"/><rect class="cls-1" x="132.49" y="39.75" width="6.63" height="6.63"/><rect class="cls-1" x="132.49" y="33.12" width="6.63" height="6.62"/><rect class="cls-1" x="132.49" y="26.5" width="6.63" height="6.62"/><rect class="cls-1" x="132.49" y="19.88" width="6.63" height="6.63"/><rect class="cls-1" x="132.49" y="13.25" width="6.63" height="6.62"/><rect class="cls-1" x="132.49" y="6.63" width="6.63" height="6.63"/><rect class="cls-1" x="132.49" width="6.63" height="6.63"/><rect class="cls-1" x="125.87" y="46.37" width="6.62" height="6.62"/><rect class="cls-1" x="125.87" y="39.75" width="6.62" height="6.63"/><rect class="cls-1" x="125.87" y="33.12" width="6.62" height="6.62"/><rect class="cls-1" x="125.87" y="26.5" width="6.62" height="6.62"/><rect class="cls-1" x="125.87" y="19.88" width="6.62" height="6.63"/><rect class="cls-1" x="125.87" y="13.25" width="6.62" height="6.62"/><rect class="cls-1" x="125.87" y="6.63" width="6.62" height="6.63"/><rect class="cls-1" x="125.87" width="6.62" height="6.63"/><rect class="cls-1" x="119.24" y="46.37" width="6.62" height="6.62"/><rect class="cls-1" x="119.24" y="39.75" width="6.62" height="6.63"/><rect class="cls-1" x="119.24" y="33.12" width="6.62" height="6.62"/><rect class="cls-1" x="119.24" y="26.5" width="6.62" height="6.62"/><rect class="cls-1" x="119.24" y="19.88" width="6.62" height="6.63"/><rect class="cls-1" x="119.24" y="13.25" width="6.62" height="6.62"/><rect class="cls-1" x="119.24" y="6.63" width="6.62" height="6.63"/><rect class="cls-1" x="119.24" width="6.62" height="6.63"/><rect class="cls-1" x="112.62" y="46.37" width="6.62" height="6.62"/><rect class="cls-1" x="112.62" y="39.75" width="6.62" height="6.63"/><rect class="cls-1" x="112.62" y="33.12" width="6.62" height="6.62"/><rect class="cls-1" x="112.62" y="26.5" width="6.62" height="6.62"/><rect class="cls-1" x="112.62" y="19.88" width="6.62" height="6.63"/><rect class="cls-1" x="112.62" y="13.25" width="6.62" height="6.62"/><rect class="cls-1" x="112.62" y="6.63" width="6.62" height="6.63"/><rect class="cls-1" x="112.62" width="6.62" height="6.63"/><rect class="cls-1" x="105.99" width="6.63" height="6.63"/><rect class="cls-1" x="105.99" y="6.63" width="6.63" height="6.63"/><rect class="cls-1" x="105.99" y="13.25" width="6.63" height="6.62"/><rect class="cls-1" x="105.99" y="19.88" width="6.63" height="6.63"/><rect class="cls-1" x="105.99" y="26.5" width="6.63" height="6.62"/><rect class="cls-1" x="105.99" y="33.12" width="6.63" height="6.62"/><rect class="cls-1" x="105.99" y="39.75" width="6.63" height="6.63"/><rect class="cls-1" x="105.99" y="46.37" width="6.63" height="6.62"/><rect class="cls-1" x="99.37" width="6.62" height="6.63"/><rect class="cls-1" x="99.37" y="6.63" width="6.62" height="6.63"/><rect class="cls-1" x="99.37" y="13.25" width="6.62" height="6.62"/><rect class="cls-1" x="99.37" y="19.88" width="6.62" height="6.63"/><rect class="cls-1" x="99.37" y="26.5" width="6.62" height="6.62"/><rect class="cls-1" x="99.37" y="33.12" width="6.62" height="6.62"/><rect class="cls-1" x="99.37" y="39.75" width="6.62" height="6.63"/><rect class="cls-1" x="99.37" y="46.37" width="6.62" height="6.62"/><rect class="cls-1" x="92.75" width="6.62" height="6.63"/><rect class="cls-1" x="92.75" y="6.63" width="6.62" height="6.63"/><rect class="cls-1" x="92.75" y="13.25" width="6.62" height="6.62"/><rect class="cls-1" x="92.75" y="19.88" width="6.62" height="6.63"/><rect class="cls-1" x="92.75" y="26.5" width="6.62" height="6.62"/><rect class="cls-1" x="92.75" y="33.12" width="6.62" height="6.62"/><rect class="cls-1" x="92.75" y="39.75" width="6.62" height="6.63"/><rect class="cls-1" x="92.75" y="46.37" width="6.62" height="6.62"/><rect class="cls-1" x="86.12" y="46.37" width="6.62" height="6.62"/><rect class="cls-1" x="86.12" y="39.75" width="6.62" height="6.63"/><rect class="cls-1" x="86.12" y="33.12" width="6.62" height="6.62"/><rect class="cls-1" x="86.12" y="26.5" width="6.62" height="6.62"/><rect class="cls-1" x="86.12" y="19.88" width="6.62" height="6.63"/><rect class="cls-1" x="86.12" y="13.25" width="6.62" height="6.62"/><rect class="cls-1" x="86.12" y="6.63" width="6.62" height="6.63"/><rect class="cls-1" x="86.12" width="6.62" height="6.63"/><rect class="cls-1" x="79.5" y="46.37" width="6.63" height="6.62"/><rect class="cls-1" x="79.5" y="39.75" width="6.63" height="6.63"/><rect class="cls-1" x="79.5" y="33.12" width="6.63" height="6.62"/><rect class="cls-1" x="79.5" y="26.5" width="6.63" height="6.62"/><rect class="cls-1" x="79.5" y="19.88" width="6.63" height="6.63"/><rect class="cls-1" x="79.5" y="13.25" width="6.63" height="6.62"/><rect class="cls-1" x="79.5" y="6.63" width="6.63" height="6.63"/><rect class="cls-1" x="79.5" width="6.63" height="6.63"/></g></g></svg>