<svg xmlns="http://www.w3.org/2000/svg" viewBox="0 0 125.87 79.51"><defs><style>.cls-1{fill:#71cee8;}</style></defs><g id="Layer_2" data-name="Layer 2"><g id="Layer_1-2" data-name="Layer 1"><polygon class="cls-1" points="119.25 6.63 119.25 0 112.62 0 106 0 99.37 0 92.75 0 86.12 0 79.5 0 72.88 0 66.24 0 59.62 0 53 0 46.38 0 39.75 0 33.12 0 26.5 0 19.87 0 13.25 0 6.63 0 6.63 6.63 0 6.63 0 13.25 0 19.88 0 26.5 0 33.12 0 39.75 0 46.37 0 53 6.63 53 13.25 53 19.87 53 26.5 53 33.12 53 39.75 53 46.38 53 53 53 59.62 53 66.24 53 72.88 53 79.5 53 86.12 53 92.75 53 99.37 53 106 53 112.62 53 119.25 53 119.25 46.37 125.87 46.37 125.87 39.75 125.87 33.12 125.87 26.5 125.87 19.88 125.87 13.25 125.87 6.63 119.25 6.63"/><polygon class="cls-1" points="6.63 53.01 0 53.01 0 59.63 0 66.26 0 72.89 0 79.51 6.63 79.51 6.63 72.89 6.63 66.26 13.25 66.26 13.25 59.63 19.87 59.63 19.87 53.01 13.25 53.01 6.63 53.01"/><rect class="cls-1" x="33.12" y="46.37" width="6.63" height="6.62"/><rect class="cls-1" x="33.12" y="39.75" width="6.63" height="6.63"/><rect class="cls-1" x="33.12" y="33.12" width="6.63" height="6.62"/><rect class="cls-1" x="33.12" y="26.5" width="6.63" height="6.63"/><rect class="cls-1" x="33.12" y="19.88" width="6.63" height="6.62"/><rect class="cls-1" x="33.12" y="13.25" width="6.63" height="6.62"/><rect class="cls-1" x="33.12" y="6.63" width="6.63" height="6.63"/><rect class="cls-1" x="33.12" width="6.63" height="6.63"/><rect class="cls-1" x="26.5" y="46.37" width="6.62" height="6.62"/><rect class="cls-1" x="26.5" y="39.75" width="6.62" height="6.63"/><rect class="cls-1" x="26.5" y="33.12" width="6.62" height="6.62"/><rect class="cls-1" x="26.5" y="26.5" width="6.62" height="6.63"/><rect class="cls-1" x="26.5" y="19.88" width="6.62" height="6.62"/><rect class="cls-1" x="26.5" y="13.25" width="6.62" height="6.62"/><rect class="cls-1" x="26.5" y="6.63" width="6.62" height="6.63"/><rect class="cls-1" x="26.5" width="6.62" height="6.63"/><rect class="cls-1" x="19.87" y="46.37" width="6.63" height="6.62"/><rect class="cls-1" x="19.87" y="39.75" width="6.63" height="6.63"/><rect class="cls-1" x="19.87" y="33.12" width="6.63" height="6.62"/><rect class="cls-1" x="19.87" y="26.5" width="6.63" height="6.63"/><rect class="cls-1" x="19.87" y="19.88" width="6.63" height="6.62"/><rect class="cls-1" x="19.87" y="13.25" width="6.63" height="6.62"/><rect class="cls-1" x="19.87" y="6.63" width="6.63" height="6.63"/><rect class="cls-1" x="19.87" width="6.63" height="6.63"/><rect class="cls-1" x="13.25" y="46.37" width="6.62" height="6.62"/><rect class="cls-1" x="13.25" y="39.75" width="6.62" height="6.63"/><rect class="cls-1" x="13.25" y="33.12" width="6.62" height="6.62"/><rect class="cls-1" x="13.25" y="26.5" width="6.62" height="6.63"/><rect class="cls-1" x="13.25" y="19.88" width="6.62" height="6.62"/><rect class="cls-1" x="13.25" y="13.25" width="6.62" height="6.62"/><rect class="cls-1" x="13.25" y="6.63" width="6.62" height="6.63"/><rect class="cls-1" x="13.25" width="6.62" height="6.63"/><rect class="cls-1" x="6.63" y="46.37" width="6.62" height="6.62"/><rect class="cls-1" x="6.63" y="39.75" width="6.62" height="6.63"/><rect class="cls-1" x="6.63" y="33.12" width="6.62" height="6.62"/><rect class="cls-1" x="6.63" y="26.5" width="6.62" height="6.63"/><rect class="cls-1" x="6.63" y="19.88" width="6.62" height="6.62"/><rect class="cls-1" x="6.63" y="13.25" width="6.62" height="6.62"/><rect class="cls-1" x="6.63" y="6.63" width="6.62" height="6.63"/><rect class="cls-1" x="6.63" width="6.62" height="6.63"/><rect class="cls-1" y="46.37" width="6.63" height="6.62"/><rect class="cls-1" y="39.75" width="6.63" height="6.63"/><rect class="cls-1" y="33.12" width="6.63" height="6.62"/><rect class="cls-1" y="26.5" width="6.63" height="6.63"/><rect class="cls-1" y="19.88" width="6.63" height="6.62"/><rect class="cls-1" y="13.25" width="6.63" height="6.62"/><rect class="cls-1" y="6.63" width="6.63" height="6.63"/><rect class="cls-1" x="119.25" y="6.63" width="6.62" height="6.63"/><rect class="cls-1" x="119.25" y="13.25" width="6.62" height="6.62"/><rect class="cls-1" x="119.25" y="19.88" width="6.62" height="6.62"/><rect class="cls-1" x="119.25" y="26.5" width="6.62" height="6.63"/><rect class="cls-1" x="119.25" y="33.12" width="6.62" height="6.62"/><rect class="cls-1" x="119.25" y="39.75" width="6.62" height="6.63"/><rect class="cls-1" x="112.62" y="46.37" width="6.62" height="6.62"/><rect class="cls-1" x="112.62" y="39.75" width="6.62" height="6.63"/><rect class="cls-1" x="112.62" y="33.12" width="6.62" height="6.62"/><rect class="cls-1" x="112.62" y="26.5" width="6.62" height="6.63"/><rect class="cls-1" x="112.62" y="19.88" width="6.62" height="6.62"/><rect class="cls-1" x="112.62" y="13.25" width="6.62" height="6.62"/><rect class="cls-1" x="112.62" y="6.63" width="6.62" height="6.63"/><rect class="cls-1" x="112.62" width="6.62" height="6.63"/><rect class="cls-1" x="106" y="46.37" width="6.62" height="6.62"/><rect class="cls-1" x="106" y="39.75" width="6.62" height="6.63"/><rect class="cls-1" x="106" y="33.12" width="6.62" height="6.62"/><rect class="cls-1" x="106" y="26.5" width="6.62" height="6.63"/><rect class="cls-1" x="106" y="19.88" width="6.62" height="6.62"/><rect class="cls-1" x="106" y="13.25" width="6.62" height="6.62"/><rect class="cls-1" x="106" y="6.63" width="6.62" height="6.63"/><rect class="cls-1" x="106" width="6.62" height="6.63"/><rect class="cls-1" x="99.37" y="46.37" width="6.62" height="6.62"/><rect class="cls-1" x="99.37" y="39.75" width="6.62" height="6.63"/><rect class="cls-1" x="99.37" y="33.12" width="6.62" height="6.62"/><rect class="cls-1" x="99.37" y="26.5" width="6.62" height="6.63"/><rect class="cls-1" x="99.37" y="19.88" width="6.62" height="6.62"/><rect class="cls-1" x="99.37" y="13.25" width="6.62" height="6.62"/><rect class="cls-1" x="99.37" y="6.63" width="6.62" height="6.63"/><rect class="cls-1" x="99.37" width="6.62" height="6.63"/><rect class="cls-1" x="92.75" y="46.37" width="6.63" height="6.62"/><rect class="cls-1" x="92.75" y="39.75" width="6.63" height="6.63"/><rect class="cls-1" x="92.75" y="33.12" width="6.63" height="6.62"/><rect class="cls-1" x="92.75" y="26.5" width="6.63" height="6.63"/><rect class="cls-1" x="92.75" y="19.88" width="6.63" height="6.62"/><rect class="cls-1" x="92.75" y="13.25" width="6.63" height="6.62"/><rect class="cls-1" x="92.75" y="6.63" width="6.63" height="6.63"/><rect class="cls-1" x="92.75" width="6.63" height="6.63"/><rect class="cls-1" x="86.12" y="46.37" width="6.62" height="6.62"/><rect class="cls-1" x="86.12" y="39.75" width="6.62" height="6.63"/><rect class="cls-1" x="86.12" y="33.12" width="6.62" height="6.62"/><rect class="cls-1" x="86.12" y="26.5" width="6.62" height="6.63"/><rect class="cls-1" x="86.12" y="19.88" width="6.62" height="6.62"/><rect class="cls-1" x="86.12" y="13.25" width="6.62" height="6.62"/><rect class="cls-1" x="86.12" y="6.63" width="6.62" height="6.63"/><rect class="cls-1" x="86.12" width="6.62" height="6.63"/><rect class="cls-1" x="79.5" y="46.37" width="6.62" height="6.62"/><rect class="cls-1" x="79.5" y="39.75" width="6.62" height="6.63"/><rect class="cls-1" x="79.5" y="33.12" width="6.62" height="6.62"/><rect class="cls-1" x="79.5" y="26.5" width="6.62" height="6.63"/><rect class="cls-1" x="79.5" y="19.88" width="6.62" height="6.62"/><rect class="cls-1" x="79.5" y="13.25" width="6.62" height="6.62"/><rect class="cls-1" x="79.5" y="6.63" width="6.62" height="6.63"/><rect class="cls-1" x="79.5" width="6.62" height="6.63"/><rect class="cls-1" x="72.88" y="46.37" width="6.62" height="6.62"/><rect class="cls-1" x="72.88" y="39.75" width="6.62" height="6.63"/><rect class="cls-1" x="72.88" y="33.12" width="6.62" height="6.62"/><rect class="cls-1" x="72.88" y="26.5" width="6.62" height="6.63"/><rect class="cls-1" x="72.88" y="19.88" width="6.62" height="6.62"/><rect class="cls-1" x="72.88" y="13.25" width="6.62" height="6.62"/><rect class="cls-1" x="72.88" y="6.63" width="6.62" height="6.63"/><rect class="cls-1" x="72.88" width="6.62" height="6.63"/><rect class="cls-1" x="66.24" width="6.63" height="6.63"/><rect class="cls-1" x="66.24" y="6.63" width="6.63" height="6.63"/><rect class="cls-1" x="66.24" y="13.25" width="6.63" height="6.62"/><rect class="cls-1" x="66.24" y="19.88" width="6.63" height="6.62"/><rect class="cls-1" x="66.24" y="26.5" width="6.63" height="6.63"/><rect class="cls-1" x="66.24" y="33.12" width="6.63" height="6.62"/><rect class="cls-1" x="66.24" y="39.75" width="6.63" height="6.63"/><rect class="cls-1" x="66.24" y="46.37" width="6.63" height="6.62"/><rect class="cls-1" x="59.62" width="6.62" height="6.63"/><rect class="cls-1" x="59.62" y="6.63" width="6.62" height="6.63"/><rect class="cls-1" x="59.62" y="13.25" width="6.62" height="6.62"/><rect class="cls-1" x="59.62" y="19.88" width="6.62" height="6.62"/><rect class="cls-1" x="59.62" y="26.5" width="6.62" height="6.63"/><rect class="cls-1" x="59.62" y="33.12" width="6.62" height="6.62"/><rect class="cls-1" x="59.62" y="39.75" width="6.62" height="6.63"/><rect class="cls-1" x="59.62" y="46.37" width="6.62" height="6.62"/><rect class="cls-1" x="53" width="6.62" height="6.63"/><rect class="cls-1" x="53" y="6.63" width="6.62" height="6.63"/><rect class="cls-1" x="53" y="13.25" width="6.62" height="6.62"/><rect class="cls-1" x="53" y="19.88" width="6.62" height="6.62"/><rect class="cls-1" x="53" y="26.5" width="6.62" height="6.63"/><rect class="cls-1" x="53" y="33.12" width="6.62" height="6.62"/><rect class="cls-1" x="53" y="39.75" width="6.62" height="6.63"/><rect class="cls-1" x="53" y="46.37" width="6.62" height="6.62"/><rect class="cls-1" x="46.37" y="46.37" width="6.63" height="6.62"/><rect class="cls-1" x="46.37" y="39.75" width="6.63" height="6.63"/><rect class="cls-1" x="46.37" y="33.12" width="6.63" height="6.62"/><rect class="cls-1" x="46.37" y="26.5" width="6.63" height="6.63"/><rect class="cls-1" x="46.37" y="19.88" width="6.63" height="6.62"/><rect class="cls-1" x="46.37" y="13.25" width="6.63" height="6.62"/><rect class="cls-1" x="46.37" y="6.63" width="6.63" height="6.63"/><rect class="cls-1" x="46.37" width="6.63" height="6.63"/><rect class="cls-1" x="39.75" y="46.37" width="6.62" height="6.62"/><rect class="cls-1" x="39.75" y="39.75" width="6.62" height="6.63"/><rect class="cls-1" x="39.75" y="33.12" width="6.62" height="6.62"/><rect class="cls-1" x="39.75" y="26.5" width="6.62" height="6.63"/><rect class="cls-1" x="39.75" y="19.88" width="6.62" height="6.62"/><rect class="cls-1" x="39.75" y="13.25" width="6.62" height="6.62"/><rect class="cls-1" x="39.75" y="6.63" width="6.62" height="6.63"/><rect class="cls-1" x="39.75" width="6.62" height="6.63"/><rect class="cls-1" x="13.25" y="53.01" width="6.62" height="6.62"/><rect class="cls-1" x="6.63" y="59.63" width="6.62" height="6.62"/><rect class="cls-1" x="6.63" y="53.01" width="6.62" height="6.62"/><rect class="cls-1" y="72.88" width="6.63" height="6.62"/><rect class="cls-1" y="66.26" width="6.63" height="6.63"/><rect class="cls-1" y="59.63" width="6.63" height="6.62"/><rect class="cls-1" y="53.01" width="6.63" height="6.62"/></g></g></svg>