<svg xmlns="http://www.w3.org/2000/svg" viewBox="0 0 105.99 92.75"><defs><style>.cls-1{fill:#d3d5d6;}.cls-2{fill:#d7382f;}.cls-3{fill:#ef3f34;}.cls-4{fill:#69bed5;}.cls-5{fill:#71cee8;}.cls-6{fill:#fec030;}.cls-7{fill:#ffc62f;}</style></defs><g id="Layer_2" data-name="Layer 2"><g id="Layer_1-2" data-name="Layer 1"><polygon class="cls-1" points="99.37 13.25 99.37 6.63 92.75 6.63 86.12 6.63 79.5 6.63 79.5 13.25 72.87 13.25 72.87 19.88 72.87 26.5 72.87 33.12 79.5 33.12 79.5 39.75 72.87 39.75 72.87 46.37 72.87 53 66.25 53 66.25 59.63 66.25 66.25 59.62 66.25 59.62 72.87 59.62 79.5 59.62 86.12 66.25 86.12 66.25 79.5 66.25 72.87 72.87 72.87 72.87 66.25 72.87 59.63 79.5 59.63 79.5 53 79.5 46.37 86.12 46.37 86.12 39.75 92.75 39.75 99.37 39.75 99.37 33.12 105.99 33.12 105.99 26.5 105.99 19.88 105.99 13.25 99.37 13.25"/><polygon class="cls-1" points="59.62 26.5 66.25 26.5 66.25 19.88 66.25 13.25 66.25 6.63 59.62 6.63 59.62 0 53 0 46.38 0 39.75 0 39.75 6.63 33.13 6.63 33.13 13.25 33.13 19.88 33.13 26.5 39.75 26.5 39.75 33.12 46.38 33.12 46.38 39.75 46.38 46.37 46.38 53 46.38 59.63 46.38 66.25 46.38 72.87 46.38 79.5 46.38 86.12 46.38 92.75 53 92.75 53 86.12 53 79.5 53 72.87 53 66.25 53 59.63 53 53 53 46.37 53 39.75 53 33.12 59.62 33.12 59.62 26.5"/><polygon class="cls-1" points="33.13 59.63 26.5 59.63 26.5 53 33.13 53 33.13 46.37 33.13 39.75 33.13 33.12 26.5 33.12 26.5 26.5 19.88 26.5 13.25 26.5 6.63 26.5 6.63 33.12 0 33.12 0 39.75 0 46.37 0 53 6.63 53 6.63 59.63 13.25 59.63 19.88 59.63 19.88 66.25 26.5 66.25 26.5 72.87 33.13 72.87 33.13 79.5 39.75 79.5 39.75 72.87 39.75 66.25 33.13 66.25 33.13 59.63"/><rect class="cls-2" x="99.37" y="26.5" width="6.62" height="6.62"/><rect class="cls-2" x="99.37" y="19.88" width="6.62" height="6.62"/><rect class="cls-2" x="99.37" y="13.25" width="6.62" height="6.63"/><rect class="cls-3" x="92.75" y="6.63" width="6.63" height="6.62"/><rect class="cls-3" x="92.75" y="13.25" width="6.63" height="6.63"/><rect class="cls-2" x="92.75" y="19.88" width="6.63" height="6.62"/><rect class="cls-2" x="92.75" y="26.5" width="6.63" height="6.62"/><rect class="cls-2" x="92.75" y="33.12" width="6.63" height="6.63"/><rect class="cls-3" x="86.12" y="6.63" width="6.62" height="6.62"/><rect class="cls-3" x="86.12" y="13.25" width="6.62" height="6.63"/><rect class="cls-3" x="86.12" y="19.88" width="6.62" height="6.62"/><rect class="cls-3" x="86.12" y="26.5" width="6.62" height="6.62"/><rect class="cls-2" x="86.12" y="33.12" width="6.62" height="6.63"/><rect class="cls-1" x="79.5" y="39.75" width="6.62" height="6.62"/><rect class="cls-2" x="79.5" y="33.12" width="6.62" height="6.63"/><rect class="cls-2" x="79.5" y="26.5" width="6.62" height="6.62"/><rect class="cls-3" x="79.5" y="19.88" width="6.62" height="6.62"/><rect class="cls-3" x="79.5" y="13.25" width="6.62" height="6.63"/><rect class="cls-3" x="79.5" y="6.63" width="6.62" height="6.62"/><rect class="cls-3" x="72.87" y="13.25" width="6.62" height="6.63"/><rect class="cls-2" x="72.87" y="19.88" width="6.62" height="6.62"/><rect class="cls-2" x="72.87" y="26.5" width="6.62" height="6.62"/><rect class="cls-1" x="72.87" y="39.75" width="6.62" height="6.62"/><rect class="cls-1" x="72.87" y="46.37" width="6.62" height="6.62"/><rect class="cls-1" x="72.87" y="53" width="6.62" height="6.63"/><rect class="cls-1" x="66.25" y="53" width="6.63" height="6.63"/><rect class="cls-1" x="66.25" y="59.63" width="6.63" height="6.62"/><rect class="cls-1" x="66.25" y="66.25" width="6.63" height="6.63"/><rect class="cls-4" x="59.62" y="6.63" width="6.63" height="6.62"/><rect class="cls-4" x="59.62" y="13.25" width="6.63" height="6.63"/><rect class="cls-4" x="59.62" y="19.88" width="6.63" height="6.62"/><rect class="cls-1" x="59.62" y="66.25" width="6.63" height="6.63"/><rect class="cls-1" x="59.62" y="72.87" width="6.63" height="6.62"/><rect class="cls-1" x="59.62" y="79.5" width="6.63" height="6.63"/><rect class="cls-5" x="53" width="6.62" height="6.63"/><rect class="cls-5" x="53" y="6.63" width="6.62" height="6.62"/><rect class="cls-4" x="53" y="13.25" width="6.62" height="6.63"/><rect class="cls-4" x="53" y="19.88" width="6.62" height="6.62"/><rect class="cls-4" x="53" y="26.5" width="6.62" height="6.62"/><rect class="cls-1" x="46.38" y="86.12" width="6.62" height="6.63"/><rect class="cls-1" x="46.38" y="79.5" width="6.62" height="6.63"/><rect class="cls-1" x="46.38" y="72.87" width="6.62" height="6.62"/><rect class="cls-1" x="46.38" y="66.25" width="6.62" height="6.63"/><rect class="cls-1" x="46.38" y="59.63" width="6.62" height="6.62"/><rect class="cls-1" x="46.38" y="53" width="6.62" height="6.63"/><rect class="cls-1" x="46.38" y="46.37" width="6.62" height="6.62"/><rect class="cls-1" x="46.38" y="39.75" width="6.62" height="6.62"/><rect class="cls-1" x="46.38" y="33.12" width="6.62" height="6.63"/><rect class="cls-4" x="46.38" y="26.5" width="6.62" height="6.62"/><rect class="cls-4" x="46.38" y="19.88" width="6.62" height="6.62"/><rect class="cls-5" x="46.38" y="13.25" width="6.62" height="6.63"/><rect class="cls-5" x="46.38" y="6.63" width="6.62" height="6.62"/><rect class="cls-5" x="46.38" width="6.62" height="6.63"/><rect class="cls-4" x="39.75" y="26.5" width="6.62" height="6.62"/><rect class="cls-4" x="39.75" y="19.88" width="6.62" height="6.62"/><rect class="cls-5" x="39.75" y="13.25" width="6.62" height="6.63"/><rect class="cls-5" x="39.75" y="6.63" width="6.62" height="6.62"/><rect class="cls-5" x="39.75" width="6.62" height="6.63"/><rect class="cls-1" x="33.13" y="72.87" width="6.63" height="6.62"/><rect class="cls-1" x="33.13" y="66.25" width="6.63" height="6.63"/><rect class="cls-4" x="33.13" y="19.88" width="6.63" height="6.62"/><rect class="cls-5" x="33.13" y="13.25" width="6.63" height="6.63"/><rect class="cls-4" x="33.13" y="6.63" width="6.63" height="6.62"/><rect class="cls-6" x="26.5" y="33.12" width="6.63" height="6.63"/><rect class="cls-6" x="26.5" y="39.75" width="6.63" height="6.62"/><rect class="cls-6" x="26.5" y="46.37" width="6.63" height="6.62"/><rect class="cls-1" x="26.5" y="59.63" width="6.63" height="6.62"/><rect class="cls-1" x="26.5" y="66.25" width="6.63" height="6.63"/><rect class="cls-7" x="19.88" y="26.5" width="6.62" height="6.62"/><rect class="cls-7" x="19.88" y="33.12" width="6.62" height="6.63"/><rect class="cls-7" x="19.88" y="39.75" width="6.62" height="6.62"/><rect class="cls-7" x="19.88" y="46.37" width="6.62" height="6.62"/><rect class="cls-6" x="19.88" y="53" width="6.62" height="6.63"/><rect class="cls-1" x="19.88" y="59.63" width="6.62" height="6.62"/><rect class="cls-6" x="13.25" y="53" width="6.62" height="6.63"/><rect class="cls-7" x="13.25" y="46.37" width="6.62" height="6.62"/><rect class="cls-7" x="13.25" y="39.75" width="6.62" height="6.62"/><rect class="cls-7" x="13.25" y="33.12" width="6.62" height="6.63"/><rect class="cls-7" x="13.25" y="26.5" width="6.62" height="6.62"/><rect class="cls-6" x="6.63" y="53" width="6.63" height="6.63"/><rect class="cls-6" x="6.63" y="46.37" width="6.63" height="6.62"/><rect class="cls-7" x="6.63" y="39.75" width="6.63" height="6.62"/><rect class="cls-7" x="6.63" y="33.12" width="6.63" height="6.63"/><rect class="cls-7" x="6.63" y="26.5" width="6.63" height="6.62"/><rect class="cls-6" y="33.12" width="6.63" height="6.63"/><rect class="cls-7" y="39.75" width="6.63" height="6.62"/><rect class="cls-6" y="46.37" width="6.63" height="6.62"/></g></g></svg>