<svg xmlns="http://www.w3.org/2000/svg" viewBox="0 0 59.62 86.12"><defs><style>.cls-1{fill:#86ceb8;}</style></defs><g id="Layer_2" data-name="Layer 2"><g id="Layer_1-2" data-name="Layer 1"><polygon class="cls-1" points="52.99 13.25 52.99 6.62 46.37 6.62 46.37 0 39.75 0 33.12 0 26.5 0 19.87 0 13.25 0 13.25 6.62 6.62 6.62 6.62 13.25 0 13.25 0 19.88 0 26.5 0 33.12 0 39.75 0 46.37 0 53 0 59.62 0 66.25 0 72.87 0 79.5 0 86.12 6.62 86.12 6.62 79.5 6.62 72.87 13.25 72.87 13.25 66.25 19.87 66.25 19.87 59.62 26.5 59.62 33.12 59.62 39.75 59.62 46.37 59.62 46.37 53 52.99 53 52.99 46.37 59.62 46.37 59.62 39.75 59.62 33.12 59.62 26.5 59.62 19.88 59.62 13.25 52.99 13.25"/><rect class="cls-1" x="52.99" y="13.25" width="6.62" height="6.62"/><rect class="cls-1" x="52.99" y="19.88" width="6.62" height="6.62"/><rect class="cls-1" x="52.99" y="26.5" width="6.62" height="6.63"/><rect class="cls-1" x="52.99" y="33.12" width="6.62" height="6.63"/><rect class="cls-1" x="52.99" y="39.75" width="6.62" height="6.63"/><rect class="cls-1" x="46.37" y="6.62" width="6.62" height="6.63"/><rect class="cls-1" x="46.37" y="13.25" width="6.62" height="6.62"/><rect class="cls-1" x="46.37" y="19.88" width="6.62" height="6.62"/><rect class="cls-1" x="46.37" y="26.5" width="6.62" height="6.63"/><rect class="cls-1" x="46.37" y="33.12" width="6.62" height="6.63"/><rect class="cls-1" x="46.37" y="39.75" width="6.62" height="6.63"/><rect class="cls-1" x="46.37" y="46.37" width="6.62" height="6.62"/><rect class="cls-1" x="39.75" y="53" width="6.62" height="6.62"/><rect class="cls-1" x="39.75" y="46.37" width="6.62" height="6.62"/><rect class="cls-1" x="39.75" y="39.75" width="6.62" height="6.63"/><rect class="cls-1" x="39.75" y="33.12" width="6.62" height="6.63"/><rect class="cls-1" x="39.75" y="26.5" width="6.62" height="6.63"/><rect class="cls-1" x="39.75" y="19.88" width="6.62" height="6.62"/><rect class="cls-1" x="39.75" y="13.25" width="6.62" height="6.62"/><rect class="cls-1" x="39.75" y="6.62" width="6.62" height="6.63"/><rect class="cls-1" x="39.75" width="6.62" height="6.62"/><rect class="cls-1" x="33.12" y="53" width="6.63" height="6.62"/><rect class="cls-1" x="33.12" y="46.37" width="6.63" height="6.62"/><rect class="cls-1" x="33.12" y="39.75" width="6.63" height="6.63"/><rect class="cls-1" x="33.12" y="33.12" width="6.63" height="6.63"/><rect class="cls-1" x="33.12" y="26.5" width="6.63" height="6.63"/><rect class="cls-1" x="33.12" y="19.88" width="6.63" height="6.62"/><rect class="cls-1" x="33.12" y="13.25" width="6.63" height="6.62"/><rect class="cls-1" x="33.12" y="6.62" width="6.63" height="6.63"/><rect class="cls-1" x="33.12" width="6.63" height="6.62"/><rect class="cls-1" x="26.5" width="6.63" height="6.62"/><rect class="cls-1" x="26.5" y="6.62" width="6.63" height="6.63"/><rect class="cls-1" x="26.5" y="13.25" width="6.63" height="6.62"/><rect class="cls-1" x="26.5" y="19.88" width="6.63" height="6.62"/><rect class="cls-1" x="26.5" y="26.5" width="6.63" height="6.63"/><rect class="cls-1" x="26.5" y="33.12" width="6.63" height="6.63"/><rect class="cls-1" x="26.5" y="39.75" width="6.63" height="6.63"/><rect class="cls-1" x="26.5" y="46.37" width="6.63" height="6.62"/><rect class="cls-1" x="26.5" y="53" width="6.63" height="6.62"/><rect class="cls-1" x="19.87" y="53" width="6.62" height="6.62"/><rect class="cls-1" x="19.87" y="46.37" width="6.62" height="6.62"/><rect class="cls-1" x="19.87" y="39.75" width="6.62" height="6.63"/><rect class="cls-1" x="19.87" y="33.12" width="6.62" height="6.63"/><rect class="cls-1" x="19.87" y="26.5" width="6.62" height="6.63"/><rect class="cls-1" x="19.87" y="19.88" width="6.62" height="6.62"/><rect class="cls-1" x="19.87" y="13.25" width="6.62" height="6.62"/><rect class="cls-1" x="19.87" y="6.62" width="6.62" height="6.63"/><rect class="cls-1" x="19.87" width="6.62" height="6.62"/><rect class="cls-1" x="13.25" width="6.63" height="6.62"/><rect class="cls-1" x="13.25" y="6.62" width="6.63" height="6.63"/><rect class="cls-1" x="13.25" y="13.25" width="6.63" height="6.62"/><rect class="cls-1" x="13.25" y="19.88" width="6.63" height="6.62"/><rect class="cls-1" x="13.25" y="26.5" width="6.63" height="6.63"/><rect class="cls-1" x="13.25" y="33.12" width="6.63" height="6.63"/><rect class="cls-1" x="13.25" y="39.75" width="6.63" height="6.63"/><rect class="cls-1" x="13.25" y="46.37" width="6.63" height="6.62"/><rect class="cls-1" x="13.25" y="53" width="6.63" height="6.62"/><rect class="cls-1" x="13.25" y="59.62" width="6.63" height="6.63"/><rect class="cls-1" x="6.62" y="6.62" width="6.62" height="6.63"/><rect class="cls-1" x="6.62" y="13.25" width="6.62" height="6.62"/><rect class="cls-1" x="6.62" y="19.88" width="6.62" height="6.62"/><rect class="cls-1" x="6.62" y="26.5" width="6.62" height="6.63"/><rect class="cls-1" x="6.62" y="33.12" width="6.62" height="6.63"/><rect class="cls-1" x="6.62" y="39.75" width="6.62" height="6.63"/><rect class="cls-1" x="6.62" y="46.37" width="6.62" height="6.62"/><rect class="cls-1" x="6.62" y="53" width="6.62" height="6.62"/><rect class="cls-1" x="6.62" y="59.62" width="6.62" height="6.63"/><rect class="cls-1" x="6.62" y="66.25" width="6.62" height="6.63"/><rect class="cls-1" y="79.5" width="6.62" height="6.62"/><rect class="cls-1" y="72.87" width="6.62" height="6.62"/><rect class="cls-1" y="66.25" width="6.62" height="6.63"/><rect class="cls-1" y="59.62" width="6.62" height="6.63"/><rect class="cls-1" y="53" width="6.62" height="6.62"/><rect class="cls-1" y="46.37" width="6.62" height="6.62"/><rect class="cls-1" y="39.75" width="6.62" height="6.63"/><rect class="cls-1" y="33.12" width="6.62" height="6.63"/><rect class="cls-1" y="26.5" width="6.62" height="6.63"/><rect class="cls-1" y="19.88" width="6.62" height="6.62"/><rect class="cls-1" y="13.25" width="6.62" height="6.62"/></g></g></svg>